<svg width="40" height="40" viewBox="0 0 40 40" fill="none" xmlns="http://www.w3.org/2000/svg">
<rect width="40" height="40" rx="10" fill="black"/>
<path d="M12.7816 6.05129C12.4832 6.13239 12.1381 6.33007 11.8909 6.55816C11.7971 6.64432 11.6821 6.74063 11.6395 6.77104C11.5926 6.80146 11.5415 6.85721 11.5244 6.89776C11.5074 6.93831 11.4434 7.08023 11.3838 7.22215C10.9704 8.17507 10.8383 8.48933 10.6934 8.89482C10.6039 9.14319 10.4974 9.38648 10.4548 9.43717C10.4122 9.48786 10.3781 9.58416 10.3781 9.65005C10.3781 9.71595 10.2332 10.2127 10.0542 10.755C9.8752 11.2923 9.68343 11.8853 9.6323 12.0678C9.5769 12.2503 9.4661 12.5088 9.38087 12.6406C9.29564 12.7724 9.22745 12.8991 9.22745 12.9244C9.22745 12.9447 9.15501 13.112 9.06551 13.2843C8.67346 14.0547 8.4135 15.1141 8.48169 15.6564C8.5243 16.0011 8.65641 16.3813 8.8567 16.7361C9.06978 17.1162 9.67491 17.8765 10.1352 18.3378L10.4718 18.6774L10.3482 18.794C9.98174 19.1589 8.50726 20.1929 8.38793 20.1676C8.28566 20.1473 8.19617 20.1878 8.08963 20.3044C8.02571 20.3754 7.8936 20.4818 7.79985 20.5376C7.30551 20.8366 6.60236 21.4804 6.1336 22.0582C5.37931 22.9908 4.99577 23.8931 5.00004 24.7345C5.00004 25.1704 5.0597 25.3985 5.30686 25.9003C5.68614 26.6758 6.46173 27.7199 7.07965 28.2876C7.3737 28.5613 8.11094 29.0986 8.46464 29.2963C8.59675 29.3672 8.83113 29.5497 8.98028 29.6916C9.29137 29.9856 9.80702 30.3556 10.1096 30.5077C10.4122 30.6597 10.996 30.8219 11.3369 30.8524C11.8525 30.898 12.8668 30.604 14.4478 29.9501C15.9436 29.3368 17.3158 28.8654 18.8414 28.4447L19.1823 28.3484L19.5233 28.7286C20.3372 29.6308 21.0958 30.2695 22.1697 30.9537C22.3998 31.1007 22.583 31.2426 22.5788 31.268C22.5702 31.2984 22.5915 31.3085 22.6256 31.2933C22.6555 31.2781 22.8728 31.3795 23.1029 31.5214C23.333 31.6583 23.6271 31.8205 23.7464 31.8813C23.8743 31.9472 23.9595 32.0182 23.9424 32.0486C23.9297 32.079 23.9382 32.084 23.9638 32.0638C23.9936 32.0435 24.2876 32.1601 24.62 32.3172C26.8019 33.3512 28.8602 33.8733 30.7481 33.8733C31.5535 33.8733 31.9754 33.8226 32.5379 33.6553C33.403 33.3968 34.0891 32.8748 34.4939 32.1702C34.6729 31.861 34.8903 31.2933 34.9073 31.0957C34.9158 31.0095 34.9457 30.7865 34.9712 30.5939C35.065 29.9248 34.9244 28.9567 34.626 28.1964C34.3363 27.4563 33.4541 26.1486 32.2993 24.7598C32.0691 24.476 31.6728 23.9742 31.4257 23.6447C31.0421 23.1277 30.9697 23.006 30.9526 22.8236C30.9057 22.4079 30.3475 21.5919 30.1088 21.5919C29.9895 21.5919 29.883 21.4094 29.9128 21.2573C29.9853 20.9127 29.3034 19.7165 29.0349 19.7165C28.971 19.7165 28.9114 19.6962 28.8986 19.6708C28.8858 19.6506 28.8687 19.0068 28.856 18.2415C28.8389 16.7057 28.8176 16.5587 28.5534 15.9403C28.2338 15.1901 27.5818 14.5819 26.8062 14.3132C26.4866 14.2068 26.4013 14.1409 26.4013 14.0142C26.4013 13.9584 26.282 13.5479 26.1329 13.1018C25.9155 12.4429 25.8431 12.2807 25.7578 12.23C25.6769 12.1793 25.6044 12.0475 25.4851 11.6978C25.059 10.456 24.6541 9.71595 24.2919 9.52334C23.9467 9.3358 23.6995 9.39662 22.8472 9.86801C21.8969 10.3952 21.4878 10.5421 20.9892 10.5421C20.5034 10.5371 20.073 10.3749 19.1994 9.85787C18.492 9.44224 17.7462 8.89482 16.4081 7.80505C15.1552 6.78625 14.5416 6.36048 14.0387 6.1628C13.6168 5.99553 13.1395 5.95499 12.7816 6.05129ZM13.979 6.33007C14.3583 6.49227 14.8271 6.8268 15.6922 7.57189C17.0985 8.77317 17.8016 9.31552 18.4749 9.72102C19.1227 10.1113 19.9494 10.4762 20.4864 10.6131C20.7548 10.679 20.7548 10.679 20.627 10.7398C19.9792 11.049 19.1355 11.5052 18.9565 11.642C18.8329 11.7333 18.6496 11.931 18.5516 12.0881L18.3684 12.3618L18.0062 12.3365C17.7036 12.3111 17.5672 12.3263 17.1752 12.4378C16.5658 12.6102 16.4592 12.6609 16.4976 12.7673C16.5658 12.965 16.5658 13.0258 16.4976 13.0258C16.4592 13.0258 16.4081 12.97 16.3825 12.9041C16.357 12.8383 16.2888 12.7724 16.2334 12.7572C16.1396 12.7369 16.1396 12.742 16.1993 12.8788C16.2291 12.9548 16.2589 13.0461 16.2589 13.0765C16.2589 13.1627 16.1439 13.1322 16.0842 13.0258C16.0246 12.9295 16.0203 12.9295 15.7859 13.0258C14.695 13.4718 13.4549 12.7622 12.8199 11.3177C12.7219 11.0997 12.675 11.0439 12.5642 11.0186C12.4108 10.9831 12.3724 10.8513 12.5046 10.8108C12.5813 10.7854 12.5813 10.7753 12.479 10.4762C12.1168 9.42703 11.942 8.14972 12.0358 7.3286C12.0614 7.10558 12.1168 6.85721 12.1594 6.77611C12.2659 6.55309 12.5131 6.33514 12.7475 6.25911C13.0458 6.15773 13.6552 6.19321 13.979 6.33007ZM11.827 7.01941C11.827 7.14106 11.8057 7.19681 11.7673 7.19681C11.6821 7.19681 11.6608 7.14106 11.6863 6.97886C11.7204 6.77611 11.827 6.80145 11.827 7.01941ZM11.7844 7.62258C11.7844 7.65806 11.7971 7.79492 11.8099 7.9267C11.8355 8.13959 11.8312 8.15986 11.746 8.15986C11.665 8.15986 11.6565 8.12945 11.6565 7.89122C11.6565 7.73916 11.6693 7.60231 11.6863 7.5871C11.7332 7.53134 11.7844 7.54655 11.7844 7.62258ZM11.8483 8.57549C11.8568 8.61097 11.8738 8.7529 11.8909 8.88468C11.9165 9.10264 11.9122 9.12798 11.844 9.11277C11.7886 9.10264 11.7545 9.02661 11.7332 8.86948C11.6949 8.62618 11.7119 8.51467 11.7844 8.51467C11.8099 8.51467 11.8355 8.54508 11.8483 8.57549ZM10.7531 9.61964C10.7659 9.7565 10.7531 9.78184 10.6806 9.78184C10.6082 9.78184 10.5911 9.75143 10.5911 9.59937C10.5911 9.45744 10.6039 9.42196 10.6678 9.43717C10.7147 9.44731 10.7445 9.50813 10.7531 9.61964ZM11.9932 9.66526C12.0571 9.9339 12.0528 10.086 11.9804 10.086C11.9122 10.086 11.8014 9.61964 11.8483 9.52841C11.8994 9.4321 11.9506 9.47772 11.9932 9.66526ZM24.164 9.99472C24.3345 10.233 24.8118 11.3582 25.059 12.1134C25.1484 12.377 25.2252 12.6051 25.2337 12.6152C25.2422 12.6254 25.3402 12.5645 25.4468 12.4733C25.5533 12.3821 25.6428 12.3111 25.6513 12.3212C25.6811 12.3719 26.103 13.7202 26.103 13.7658C26.0988 13.7912 25.9581 13.9432 25.7834 14.1054C25.6087 14.2626 25.4638 14.4146 25.4638 14.4349C25.4638 14.4602 25.5277 14.5515 25.6087 14.6427L25.7536 14.81L25.907 14.6123C25.988 14.5059 26.0604 14.3842 26.0604 14.3386C26.0604 14.2372 26.2607 14.1663 26.3289 14.2372C26.3587 14.2626 26.5633 14.3538 26.7849 14.44C27.0065 14.5312 27.2536 14.6528 27.3389 14.7086C27.9142 15.1192 28.3318 15.7122 28.4639 16.3204C28.4809 16.3914 28.4426 16.3255 28.3787 16.1785C28.204 15.7527 27.8588 15.3523 27.5221 15.1648C27.2749 15.033 26.7508 14.8759 26.7082 14.9266C26.6996 14.9367 26.7167 15.0381 26.7465 15.1496C26.7977 15.3523 26.7934 15.3675 26.64 15.626C26.5547 15.768 26.4397 15.9504 26.3928 16.0265L26.2991 16.1684L26.4099 16.3052C26.4695 16.3863 26.5462 16.4978 26.5803 16.5587L26.64 16.6702L26.8232 16.4522C26.934 16.3154 27.032 16.2393 27.0747 16.2545C27.2281 16.3052 27.5946 17.0605 27.5946 17.324C27.5946 17.3747 27.5178 17.5471 27.4241 17.7042C27.3303 17.8563 27.2536 18.0032 27.2536 18.0286C27.2579 18.0489 27.3346 18.1705 27.4284 18.2972C27.6201 18.5456 27.6159 18.5507 27.7735 18.13C27.8247 17.9982 27.8801 17.8968 27.8971 17.9019C27.961 17.9323 28.5321 18.8497 28.5321 18.9257C28.5321 18.9714 28.4682 19.1995 28.3915 19.4377L28.2466 19.8635L28.4213 20.0662C28.5193 20.1828 28.6088 20.274 28.6216 20.274C28.6344 20.274 28.7068 20.1726 28.7835 20.0459C28.8602 19.9192 28.9455 19.8178 28.9795 19.8178C29.069 19.8178 29.3546 20.2385 29.5122 20.6035C29.6571 20.938 29.6571 20.9431 29.5804 21.1053C29.5421 21.1965 29.4014 21.4145 29.2693 21.5919L29.0349 21.9112L29.2054 21.9822C29.3716 22.0481 29.3886 22.043 29.6784 21.8656C30.0534 21.6375 30.1344 21.6578 30.3688 22.0075C30.6245 22.3978 30.7268 22.6512 30.6543 22.7374C30.6245 22.7729 30.0236 23.2696 29.3205 23.8424C27.9781 24.9321 27.4497 25.3123 26.9553 25.5404C26.7891 25.6215 26.5931 25.7533 26.5164 25.8344C26.3331 26.0422 26.2223 26.103 26.0306 26.103C25.5831 26.103 25.272 25.4542 25.5064 25.0031C25.63 24.7598 25.7877 24.6584 26.0476 24.6534C26.2564 24.6483 26.2863 24.6331 26.5079 24.3847C26.6996 24.1718 26.7337 24.1009 26.7039 24.0299C26.6144 23.8373 26.5718 23.8322 25.907 23.8931C25.3104 23.9488 25.255 23.964 25.1314 24.0857C24.9524 24.2631 24.8544 24.2935 24.6285 24.2529C24.4922 24.2327 24.3984 24.1718 24.2919 24.0451C23.8998 23.5839 24.1555 22.8084 24.701 22.8084C24.7692 22.8084 24.9695 22.7577 25.1442 22.6968C25.4041 22.6056 25.4595 22.5701 25.4425 22.4992C25.4041 22.3572 25.5022 22.3319 25.613 22.4535C25.6684 22.5144 25.7365 22.5499 25.7621 22.5296C25.7962 22.5042 25.7365 22.3978 25.5874 22.2204L25.3615 21.9467L25.6556 21.5919C25.8175 21.3942 25.9326 21.2371 25.9113 21.2371C25.8857 21.2371 25.4553 21.3891 24.9524 21.5716C24.1981 21.8504 24.0149 21.9365 23.9084 22.0633C23.5333 22.5093 23.022 22.3927 22.8387 21.8149C22.779 21.6274 22.7748 21.5564 22.8174 21.3942C22.8813 21.1357 23.1072 20.9025 23.333 20.8569C23.4353 20.8366 23.6186 20.7657 23.7507 20.6947L23.9851 20.5731L23.8913 20.4565C23.8444 20.3957 23.8018 20.3146 23.8018 20.2842C23.8018 20.1777 23.9126 20.2183 24.0362 20.3754C24.1172 20.4768 24.1726 20.5122 24.2024 20.4768C24.228 20.4463 24.2194 20.3957 24.1683 20.3298C24.1001 20.2385 24.1044 20.2233 24.3132 19.9192C24.4368 19.7469 24.5263 19.5999 24.5177 19.5897C24.4922 19.5593 23.6654 19.8482 23.6399 19.8989C23.6228 19.9293 23.5419 19.9547 23.4609 19.9547C23.3799 19.9547 23.1668 19.9902 22.9879 20.0409C22.7151 20.1169 22.6555 20.1524 22.5915 20.2791C22.4978 20.4717 22.3188 20.5781 22.0887 20.5781C21.8841 20.5781 21.6284 20.421 21.6284 20.2994C21.6284 20.2537 21.6114 20.2284 21.5901 20.2436C21.5347 20.2842 21.458 20.0409 21.458 19.8229C21.458 19.5796 21.6029 19.316 21.7989 19.1995C21.8799 19.1488 22.1824 19.0018 22.468 18.87L22.9921 18.6318L22.86 18.4696C22.7876 18.3783 22.7364 18.282 22.7535 18.2567C22.7663 18.2313 22.9538 18.0387 23.1668 17.836C23.5504 17.466 23.5546 17.4609 23.4225 17.4457C23.2265 17.4203 22.7663 17.5572 22.029 17.8512C21.4239 18.0894 21.3813 18.1148 21.3174 18.277C21.2364 18.4696 20.9764 18.652 20.7761 18.652C20.4565 18.652 20.1625 18.2922 20.1625 17.8968C20.1625 17.5268 20.2733 17.3899 20.8315 17.0554C21.0915 16.8932 21.3174 16.7563 21.3259 16.7462C21.3387 16.7361 21.3216 16.6955 21.296 16.6651C21.2364 16.5942 21.2279 16.4218 21.2833 16.4218C21.3046 16.4218 21.3642 16.4826 21.4154 16.5587L21.5049 16.6955L21.6199 16.5232C21.6796 16.4269 21.8841 16.1532 22.0759 15.9251C22.4168 15.4993 22.4168 15.4993 22.2677 15.5297C22.1867 15.5449 21.9353 15.5956 21.7137 15.6362C21.4921 15.6818 21.2364 15.7426 21.1469 15.768C20.985 15.8186 20.985 15.8237 21.0489 15.9403C21.1895 16.1988 21.083 16.2596 20.9082 16.0214L20.7974 15.8693L20.5631 15.996C20.3756 16.0974 20.3116 16.1684 20.2435 16.3306C20.1369 16.584 19.9324 16.7259 19.6681 16.7259C19.4466 16.7259 19.1738 16.5739 19.1823 16.4522C19.1866 16.4066 19.1738 16.3863 19.1525 16.4015C19.0928 16.4421 18.9863 16.0974 18.9863 15.8744C18.9863 15.6007 19.1312 15.3574 19.3912 15.2053C19.5105 15.1344 19.6639 15.033 19.7321 14.9722C20.1327 14.6326 21.7733 14.2423 23.1157 14.1663L23.7294 14.1308L24.2067 13.6645C24.6839 13.2083 24.8288 13.0309 24.7266 13.0461C24.6967 13.0461 24.6712 13.0359 24.6669 13.0106C24.6584 12.9903 24.5987 12.8991 24.5348 12.8078C24.4666 12.7217 24.1768 12.3263 23.8913 11.936C23.2222 11.0186 23.0987 10.8817 22.5915 10.5219L22.3401 10.3394L22.5745 10.2177C22.8004 10.1012 23.3373 9.87308 23.5248 9.81732C23.5717 9.80718 23.6995 9.79198 23.8103 9.78691C23.9936 9.78184 24.0191 9.79705 24.164 9.99472ZM10.8767 10.3394C10.915 10.4864 10.9193 10.5776 10.8894 10.6131C10.8298 10.6841 10.7786 10.608 10.7232 10.3698C10.6423 10.0049 10.7914 9.97952 10.8767 10.3394ZM12.2062 10.7094C12.2531 10.8919 12.2574 10.9628 12.219 11.0085C12.1807 11.0541 12.1551 11.0237 12.1082 10.8919C12.0741 10.7956 12.0315 10.6486 12.0145 10.5726C11.9889 10.4509 11.9974 10.4357 12.0656 10.4509C12.1168 10.461 12.1636 10.5523 12.2062 10.7094ZM11.1196 11.1149C11.2048 11.3835 11.2048 11.4038 11.1196 11.4038C11.0556 11.4038 10.9321 11.125 10.9321 10.973C10.9321 10.8159 11.0514 10.902 11.1196 11.1149ZM12.2702 11.1909C12.3085 11.272 12.0102 11.5711 11.9292 11.5356C11.8653 11.5052 11.8738 11.4798 11.9974 11.3278C12.1423 11.1504 12.2276 11.1098 12.2702 11.1909ZM12.5429 11.5508C12.6494 11.7738 12.6622 11.86 12.5855 11.86C12.5216 11.86 12.2915 11.4494 12.3213 11.3937C12.3682 11.3024 12.4577 11.3633 12.5429 11.5508ZM11.6991 11.7079C11.6991 11.8651 11.3071 11.9107 11.2815 11.7536C11.273 11.6927 11.3156 11.6775 11.4861 11.6725C11.6011 11.6725 11.6991 11.6877 11.6991 11.7079ZM13.0415 12.2959C13.1353 12.4024 13.1864 12.5088 13.1736 12.5544C13.1267 12.6913 12.8071 12.3517 12.8071 12.1692C12.8071 12.0678 12.8881 12.1134 13.0415 12.2959ZM18.4962 12.5139C18.5303 12.5848 18.3982 12.6558 18.1979 12.6761C18.0658 12.6913 18.0275 12.6761 18.0147 12.6102C18.0062 12.5493 18.036 12.5189 18.1212 12.5037C18.3471 12.4632 18.4707 12.4682 18.4962 12.5139ZM19.0502 12.7267C19.1994 12.8839 19.2463 13.0258 19.1482 13.0258C19.0588 13.0207 18.7604 12.6811 18.7945 12.6254C18.8372 12.5392 18.8883 12.5595 19.0502 12.7267ZM17.7079 12.7774C17.7079 12.8231 17.3584 13.0258 17.2732 13.0258C17.2519 13.0258 17.2391 12.9852 17.2476 12.9396C17.2561 12.8889 17.3414 12.8129 17.4522 12.7673C17.6439 12.6811 17.7079 12.6862 17.7079 12.7774ZM13.6722 12.8991C13.8214 13.0207 13.8853 13.1779 13.7873 13.1779C13.7063 13.1779 13.4037 12.9143 13.4037 12.8433C13.4037 12.7369 13.4932 12.7572 13.6722 12.8991ZM16.9408 13.1069C16.9408 13.1525 16.9024 13.1981 16.8556 13.2133C16.749 13.2488 16.7448 13.2387 16.8982 13.487C17.0218 13.6898 17.0303 13.7861 16.928 13.7861C16.8726 13.7861 16.6851 13.4668 16.6851 13.3755C16.6851 13.3451 16.6467 13.3299 16.5999 13.3451C16.5572 13.3603 16.4976 13.3401 16.4678 13.2995C16.4294 13.2438 16.4464 13.2184 16.5402 13.1779C16.6084 13.1474 16.7021 13.1069 16.749 13.0816C16.8769 13.0106 16.9408 13.0157 16.9408 13.1069ZM9.34251 13.3654C9.27007 14.0852 9.51297 14.8201 10.0499 15.4892C10.736 16.3559 12.7773 18.4544 14.9166 20.5021C16.195 21.7237 16.6382 22.1849 17.6226 23.3152C18.6795 24.5266 19.1056 24.9676 19.9451 25.7127C22.9112 28.3535 26.2181 30.0414 29.5122 30.5939C30.1898 30.7104 32.3248 30.7307 32.7297 30.6243C33.3859 30.4519 33.7737 30.2543 34.055 29.9451C34.2979 29.6815 34.413 29.4534 34.5025 29.0732L34.5706 28.7641L34.626 28.9668C34.7155 29.3267 34.7326 30.2036 34.6474 30.6344C34.3618 32.1753 33.3263 33.0826 31.6004 33.3056C31.0549 33.3766 29.8745 33.336 29.1287 33.2245C26.6315 32.8393 23.6612 31.5417 21.3728 29.8336C20.7932 29.4027 19.9537 28.6019 19.2974 27.8466C19.259 27.8061 19.1951 27.801 19.0843 27.8314C17.1198 28.3788 16.6041 28.5512 14.4265 29.4027C12.6793 30.087 12.5216 30.1326 11.8611 30.1529C11.4179 30.163 11.2645 30.1478 10.9917 30.0566C10.4079 29.869 9.8752 29.4483 9.46184 28.8502C9.28285 28.5917 9.27007 28.5613 9.34677 28.5461C9.432 28.5309 9.42774 28.5208 9.30842 28.2065C9.24024 28.0291 9.14648 27.7148 9.09961 27.5121C8.99307 27.0458 8.91636 26.1182 8.95472 25.7685L8.98028 25.4998L8.82687 25.4694C8.65215 25.4289 8.65215 25.4238 8.73312 24.9524C8.87801 24.1516 9.20188 23.1682 9.48314 22.6766C9.76014 22.2001 10.3269 21.6527 10.8852 21.3131C11.2687 21.085 11.8611 20.8316 12.04 20.8164C12.1338 20.8113 12.2105 20.791 12.2105 20.7657C12.2105 20.7454 12.2318 20.7302 12.2574 20.7302C12.283 20.7302 12.2957 20.7657 12.2787 20.8062C12.2659 20.8468 12.2744 20.8823 12.2957 20.8823C12.3213 20.8823 12.3384 20.9025 12.3384 20.9279C12.3384 20.9532 12.3 20.9634 12.2531 20.9481C12.2062 20.9329 12.1679 20.9025 12.1679 20.8772C12.1679 20.8518 12.1381 20.8316 12.0997 20.8316C12.04 20.8316 12.04 20.8468 12.0827 20.9076C12.1125 20.9481 12.1636 20.9836 12.1935 20.9836C12.2276 20.9836 12.2531 21.0039 12.2531 21.0343C12.2531 21.0597 12.2787 21.085 12.3085 21.085C12.3426 21.085 12.4236 21.1408 12.4918 21.2117C12.6409 21.3688 12.8497 21.4956 12.8924 21.4652C12.9137 21.4499 12.9733 21.4652 13.0287 21.4905C13.1182 21.5412 13.1182 21.5412 13.0074 21.5158C12.935 21.4956 12.8966 21.5057 12.9094 21.5361C12.9392 21.5919 12.9179 21.602 12.4193 21.7389C10.5869 22.2457 9.38939 24.4101 9.61099 26.8075C9.75588 28.3738 10.3866 29.3368 11.4861 29.6764C11.9292 29.8133 12.6452 29.7575 13.3185 29.5345C13.6125 29.4331 13.9662 29.3064 14.1026 29.2507C14.4009 29.1239 14.3839 29.1239 14.3839 29.2202C14.3839 29.2659 14.4094 29.2811 14.4521 29.2608C14.5075 29.2354 14.5075 29.2202 14.4606 29.1848C14.4222 29.1493 14.435 29.1442 14.5032 29.1594C14.6097 29.1898 15.1978 28.9719 15.1296 28.9313C15.1041 28.9212 15.1126 28.9161 15.1467 28.9263C15.2447 28.9567 15.364 28.8908 15.364 28.7995C15.364 28.7286 15.3725 28.7286 15.4024 28.7843C15.4322 28.8401 15.4663 28.8401 15.6027 28.7843C15.6964 28.7489 15.7944 28.7134 15.8243 28.7083C16.1396 28.6424 17.1411 28.3028 17.124 28.2623C17.1112 28.2369 17.1198 28.2318 17.1453 28.2521C17.1709 28.2673 17.3328 28.242 17.5033 28.1862C18.1724 27.9733 18.9693 27.7148 19.0247 27.6946C19.0971 27.6692 18.9693 27.4969 18.0317 26.3564C17.6269 25.8698 16.9323 24.998 16.4848 24.4253C15.5302 23.2037 13.9236 21.3891 13.7958 21.3891C13.7447 21.3891 13.7276 21.3739 13.4293 21.0343C13.2631 20.8417 13.2247 20.8164 13.1864 20.8823C13.148 20.9481 13.1438 20.9481 13.1608 20.8721C13.1864 20.7809 12.8796 20.4159 12.5216 20.122C12.4023 20.0256 12.3128 19.9293 12.3213 19.9141C12.3298 19.8939 11.8611 19.4275 11.2815 18.8751C9.09961 16.7918 8.57118 15.9403 8.75016 14.7745L8.78425 14.5717L8.86096 14.9266C9.05273 15.8338 9.44905 16.4472 10.6678 17.7295C11.3923 18.4949 11.5926 18.6977 13.3611 20.4514C14.7291 21.8149 14.8569 21.9568 16.8982 24.3594C18.9437 26.767 19.5403 27.4107 20.4182 28.1609C20.9423 28.6069 21.0659 28.683 21.1171 28.5917C21.1426 28.536 21.0659 28.4498 20.806 28.242C19.8386 27.4665 19.063 26.6453 16.7703 23.9488C15.7263 22.7222 14.614 21.4601 14.2986 21.1408C13.9833 20.8265 13.6765 20.5173 13.6168 20.4565C13.5571 20.3957 13.1736 20.0155 12.7645 19.6049C11.5031 18.353 11.3539 18.2009 10.8127 17.6231C10.0627 16.8324 9.52576 16.1735 9.35956 15.844C9.06551 15.256 8.90358 14.4856 8.97602 14.0142C9.01011 13.7912 9.28285 13.1272 9.34251 13.1272C9.3553 13.1272 9.3553 13.2336 9.34251 13.3654ZM14.3711 13.3654C14.5416 13.4516 14.6012 13.5428 14.5202 13.6036C14.4648 13.6442 14.0856 13.4212 14.0856 13.3502C14.0856 13.259 14.1538 13.259 14.3711 13.3654ZM19.5957 13.487C19.7235 13.7101 19.7406 13.7861 19.6511 13.7861C19.5787 13.7861 19.3187 13.3857 19.3528 13.3198C19.3997 13.2336 19.4806 13.2894 19.5957 13.487ZM16.1524 13.4313C16.1524 13.5124 15.803 13.6492 15.7135 13.6087C15.6069 13.5631 15.6879 13.4617 15.8797 13.4009C16.097 13.3299 16.1524 13.335 16.1524 13.4313ZM18.8201 13.4465C18.9011 13.5073 19.0119 13.6645 19.063 13.7962C19.1994 14.1206 19.1653 14.3842 18.9437 14.663C18.7988 14.8505 18.7604 14.8708 18.5346 14.8911C18.3215 14.9063 18.2619 14.8911 18.134 14.7897C17.8101 14.5312 17.7079 14.1156 17.8698 13.7354C18.036 13.3401 18.5048 13.1981 18.8201 13.4465ZM16.5999 13.5935C16.7362 13.8165 16.7618 13.9382 16.668 13.9382C16.5913 13.9382 16.374 13.5428 16.4038 13.4516C16.4379 13.3451 16.4592 13.3603 16.5999 13.5935ZM15.364 13.6036C15.364 13.7202 15.0231 13.781 14.8995 13.6898C14.7887 13.6087 14.8995 13.5327 15.1339 13.5327C15.3001 13.5327 15.364 13.5529 15.364 13.6036ZM17.3371 14.2473C17.4649 14.4602 17.4692 14.6681 17.3456 14.5464C17.2433 14.445 17.1027 14.146 17.1326 14.0902C17.1752 14.0041 17.2135 14.0345 17.3371 14.2473ZM20.0517 14.2524C20.1881 14.4754 20.2136 14.5971 20.1199 14.5971C20.0432 14.5971 19.8258 14.2017 19.8557 14.1105C19.8897 14.0041 19.9111 14.0193 20.0517 14.2524ZM17.0686 14.4197C17.188 14.6275 17.205 14.7492 17.1155 14.7492C17.0601 14.7492 16.8556 14.3741 16.8556 14.2778C16.8556 14.1308 16.9323 14.1815 17.0686 14.4197ZM17.7973 15.0533C17.8996 15.2205 17.9167 15.3574 17.8357 15.3574C17.8144 15.3574 17.7377 15.251 17.661 15.1242C17.5544 14.9367 17.5374 14.8809 17.5843 14.8455C17.6184 14.8252 17.6525 14.8201 17.6652 14.8404C17.6823 14.8607 17.7419 14.957 17.7973 15.0533ZM12.6793 15.0533C12.6793 15.0837 12.6622 15.1445 12.6409 15.1952C12.6154 15.2408 12.5898 15.3473 12.5727 15.4233C12.56 15.5044 12.5259 15.5601 12.496 15.5449C12.4151 15.5145 12.4108 15.2611 12.4875 15.1242C12.5514 15.0026 12.6793 14.957 12.6793 15.0533ZM17.5203 15.1901C17.5843 15.2966 17.6567 15.3878 17.6738 15.3979C17.7505 15.4385 17.6993 15.5551 17.58 15.6007C17.4479 15.6564 17.3925 15.621 17.4351 15.4942C17.4479 15.4537 17.4181 15.3473 17.3712 15.2509C17.2902 15.0938 17.286 15.0026 17.3627 15.0026C17.384 15.0026 17.4522 15.0888 17.5203 15.1901ZM13.2503 15.1293C13.3952 15.2003 13.4634 15.3574 13.3526 15.3574C13.2418 15.3523 12.9307 15.1546 12.9563 15.104C12.9946 15.033 13.0671 15.0381 13.2503 15.1293ZM14.0813 15.6362C14.1921 15.7629 14.0302 15.7832 13.8341 15.6615C13.6637 15.5601 13.6296 15.5095 13.685 15.4436C13.7191 15.403 14.0003 15.5399 14.0813 15.6362ZM17.1112 15.6869C17.1112 15.773 16.9749 15.8491 16.7831 15.8744C16.5956 15.8997 16.634 15.7527 16.8342 15.6818C17.0644 15.5956 17.1112 15.5956 17.1112 15.6869ZM18.2405 15.7984C18.3599 16.0113 18.3769 16.1177 18.2874 16.1177C18.2278 16.1177 18.0062 15.7578 18.0062 15.6615C18.0062 15.5449 18.1383 15.621 18.2405 15.7984ZM14.6822 15.8845C14.8484 15.9555 14.8867 16.0974 14.7333 16.0822C14.5756 16.0619 14.3327 15.92 14.3626 15.8643C14.3967 15.7984 14.4947 15.8034 14.6822 15.8845ZM18.0019 16.0265C18.1297 16.2292 18.1383 16.3204 18.036 16.3204C17.9763 16.3204 17.7462 15.9099 17.776 15.8541C17.8187 15.773 17.8741 15.8186 18.0019 16.0265ZM12.6921 16.1025C12.756 16.361 12.7517 16.4218 12.6622 16.4218C12.6281 16.4218 12.5813 16.3204 12.5557 16.1988C12.496 15.9048 12.496 15.8643 12.5727 15.8643C12.6111 15.8643 12.658 15.9606 12.6921 16.1025ZM16.3783 15.9251C16.357 16.0011 16.2078 16.0569 16.016 16.0619C15.8541 16.067 15.8285 15.9859 15.9734 15.9149C16.1183 15.844 16.3953 15.8541 16.3783 15.9251ZM15.5984 16.067C15.5984 16.1228 15.543 16.1481 15.3896 16.1582C15.1765 16.1735 15.0742 16.1228 15.1296 16.0163C15.1765 15.9302 15.5984 15.9707 15.5984 16.067ZM18.705 16.5739C18.8329 16.802 18.8414 16.878 18.7519 16.878C18.688 16.878 18.4749 16.5435 18.4749 16.437C18.4749 16.3052 18.5942 16.3762 18.705 16.5739ZM18.4749 16.802C18.5985 17.0149 18.6113 17.1314 18.5175 17.1314C18.4579 17.1314 18.2107 16.6803 18.2405 16.6246C18.2874 16.5333 18.3428 16.5739 18.4749 16.802ZM12.935 16.9388C13.0372 17.2024 13.0415 17.2835 12.9563 17.2835C12.9222 17.2835 12.8625 17.2024 12.8284 17.101C12.6963 16.7209 12.7943 16.5688 12.935 16.9388ZM19.1696 17.3291C19.2974 17.5521 19.3144 17.6383 19.225 17.6383C19.1525 17.6383 18.8926 17.2379 18.9266 17.172C18.9735 17.0858 19.0545 17.1416 19.1696 17.3291ZM18.9565 17.5825C19.0843 17.8005 19.1014 17.8917 19.0119 17.8917C18.9522 17.8917 18.7306 17.5471 18.7306 17.4457C18.7306 17.324 18.8414 17.3899 18.9565 17.5825ZM13.2333 17.8005C13.3355 18.0641 13.3398 18.1452 13.2546 18.1452C13.1907 18.1452 13.0074 17.7042 13.0458 17.6332C13.0926 17.5369 13.1566 17.5927 13.2333 17.8005ZM19.6468 18.0894C19.7491 18.2719 19.7619 18.3986 19.6724 18.3986C19.6255 18.3986 19.4125 18.0286 19.4125 17.9526C19.4125 17.8258 19.5318 17.8968 19.6468 18.0894ZM22.4722 18.206C22.5702 18.3581 22.5958 18.4341 22.5617 18.4696C22.5276 18.5101 22.4722 18.4696 22.3699 18.3276C22.289 18.2161 22.2251 18.0995 22.2251 18.059C22.2251 17.9323 22.3359 17.9931 22.4722 18.206ZM19.4508 18.3733C19.5829 18.5963 19.5957 18.723 19.4806 18.6723C19.3954 18.6318 19.1909 18.2516 19.2207 18.1959C19.2676 18.1046 19.3102 18.1401 19.4508 18.3733ZM13.5231 18.576C13.5529 18.647 13.5742 18.7179 13.5742 18.7331C13.5742 18.7889 13.3654 18.5709 13.3611 18.5101C13.3611 18.3986 13.4719 18.4442 13.5231 18.576ZM20.1156 18.8294C20.1881 18.946 20.2179 19.0423 20.2008 19.0981C20.1753 19.169 20.1497 19.1538 20.0261 18.9866C19.9451 18.8751 19.8812 18.7585 19.8812 18.7179C19.8812 18.5963 19.9963 18.652 20.1156 18.8294ZM19.9451 19.1336C20.0176 19.2501 20.0474 19.3464 20.0304 19.4022C20.0091 19.4732 19.9792 19.4529 19.8557 19.2856C19.7789 19.1741 19.7108 19.0525 19.7108 19.017C19.7108 18.8953 19.8301 18.9562 19.9451 19.1336ZM20.5972 19.5745C20.6867 19.7114 20.7207 19.8026 20.6952 19.833C20.6227 19.9192 20.3159 19.5188 20.3713 19.4123C20.4139 19.3262 20.4565 19.3515 20.5972 19.5745ZM20.4565 19.9192C20.546 20.0763 20.5631 20.1422 20.529 20.1828C20.4778 20.2436 20.4693 20.2385 20.2648 19.9141C20.2179 19.8432 20.1923 19.7671 20.2094 19.7469C20.269 19.6759 20.3457 19.7266 20.4565 19.9192ZM12.2403 20.0003C12.2276 20.0155 12.1892 20.0206 12.1594 20.0054C12.1253 19.9902 12.1381 19.975 12.1849 19.975C12.2318 19.9699 12.2574 19.9851 12.2403 20.0003ZM12.04 20.0561C12.006 20.0713 11.942 20.1067 11.9037 20.1321C11.8568 20.1574 11.827 20.1574 11.827 20.127C11.827 20.0763 11.925 20.0358 12.04 20.0307C12.0954 20.0307 12.0954 20.0307 12.04 20.0561ZM12.4662 20.1726C12.5216 20.2284 12.5472 20.274 12.5216 20.274C12.5003 20.274 12.4449 20.2284 12.4023 20.1726C12.3597 20.1169 12.3341 20.0713 12.3469 20.0713C12.3597 20.0713 12.4108 20.1169 12.4662 20.1726ZM21.019 20.2081C21.181 20.4514 21.2151 20.5325 21.1725 20.5832C21.1213 20.644 20.8614 20.3146 20.8614 20.198C20.8614 20.0966 20.9466 20.1017 21.019 20.2081ZM11.6523 20.2436C11.6437 20.2537 11.5755 20.2791 11.5074 20.2994L11.3795 20.3298L11.5074 20.2588C11.6224 20.1929 11.6991 20.1878 11.6523 20.2436ZM12.3767 20.2436C12.4151 20.2943 12.4108 20.3196 12.3639 20.3399C12.3256 20.3602 12.2872 20.35 12.2744 20.3247C12.2574 20.2943 12.2744 20.274 12.3043 20.274C12.3426 20.274 12.3426 20.2588 12.2957 20.2233C12.2616 20.198 12.2531 20.1726 12.2787 20.1726C12.3043 20.1726 12.3511 20.2031 12.3767 20.2436ZM8.41777 20.3044C8.41777 20.3602 8.27287 20.6288 8.23878 20.6288C8.17486 20.6288 8.16207 20.5325 8.20895 20.4058C8.25157 20.2943 8.41777 20.2132 8.41777 20.3044ZM11.5159 20.4818C11.6437 20.568 11.7332 20.6592 11.7119 20.6795C11.6949 20.6998 11.5457 20.7758 11.3795 20.8518C10.6593 21.1864 9.91782 21.7591 9.55133 22.2711C9.10387 22.8945 8.73312 23.9843 8.52004 25.2869C8.49873 25.3985 8.48595 25.4035 8.2473 25.3731C8.01718 25.3427 7.99161 25.3478 7.94474 25.4491C7.80411 25.7685 7.86803 26.5795 8.1152 27.5222C8.18764 27.7858 8.22174 27.9683 8.19191 27.9227C8.16207 27.877 8.03849 27.8111 7.91917 27.7807C7.77002 27.7351 7.69331 27.6895 7.69331 27.6388C7.69331 27.5729 7.7274 27.5678 7.86803 27.5932C8.03849 27.6236 8.04275 27.6236 8.01292 27.5121C7.88082 27.0255 7.81263 26.62 7.79132 26.2196L7.76575 25.7533L7.5612 25.6975C7.42483 25.657 7.35239 25.6113 7.35239 25.5607C7.35239 25.4948 7.39074 25.4897 7.5612 25.515L7.77002 25.5454L7.81689 25.1298C7.95326 24.0198 8.34532 22.707 8.70755 22.1697C8.92062 21.8504 9.44479 21.3739 9.93912 21.0495C10.3141 20.8062 11.175 20.3298 11.2474 20.3247C11.2687 20.3247 11.388 20.3957 11.5159 20.4818ZM12.4875 20.4007C12.2233 20.4869 12.1935 20.4869 12.3597 20.4007C12.4321 20.3602 12.5344 20.3298 12.594 20.3298C12.658 20.3298 12.6154 20.3602 12.4875 20.4007ZM12.1977 20.4058C12.1849 20.421 12.1466 20.4261 12.1168 20.4109C12.0827 20.3957 12.0954 20.3805 12.1423 20.3805C12.1892 20.3754 12.2148 20.3906 12.1977 20.4058ZM12.1679 20.5122C12.1679 20.5224 12.1338 20.5274 12.0954 20.5224C12.0528 20.5173 11.9846 20.5274 11.9463 20.5477C11.9037 20.5731 11.8483 20.5781 11.8184 20.5629C11.7886 20.5477 11.8057 20.5325 11.8568 20.5325C11.9079 20.5274 11.9591 20.5072 11.9719 20.4818C11.9974 20.4362 12.1679 20.4616 12.1679 20.5122ZM20.9636 20.6592C21.0404 20.7707 21.0744 20.862 21.0531 20.9228C21.0318 20.9938 21.002 20.9735 20.8571 20.791C20.6994 20.5883 20.6739 20.4717 20.7889 20.4818C20.8188 20.4818 20.8955 20.5629 20.9636 20.6592ZM12.8625 20.5832C12.837 20.6136 12.7347 20.6491 12.6324 20.6592C12.5301 20.6744 12.4577 20.6744 12.4705 20.6592C12.4832 20.644 12.5642 20.6238 12.6537 20.6085C12.7432 20.5933 12.8284 20.5731 12.8412 20.5579C12.854 20.5427 12.8753 20.5274 12.8881 20.5274C12.9009 20.5274 12.8881 20.5528 12.8625 20.5832ZM12.9946 20.6187C13.0074 20.644 12.9904 20.6643 12.9563 20.6643C12.9222 20.6643 12.9051 20.644 12.9179 20.6187C12.9307 20.5984 12.9477 20.5781 12.9563 20.5781C12.9648 20.5781 12.9818 20.5984 12.9946 20.6187ZM7.98735 20.9177C7.98735 20.9684 7.90638 21.085 7.81689 21.1813C7.68479 21.3182 7.63791 21.3384 7.59529 21.2928C7.55694 21.2421 7.58251 21.1864 7.72314 21.0292C7.91917 20.8164 7.99161 20.7809 7.98735 20.9177ZM21.5773 21.0292C21.7265 21.2472 21.7478 21.3384 21.654 21.3384C21.573 21.3384 21.3174 20.9481 21.3514 20.8823C21.3941 20.7961 21.4367 20.8214 21.5773 21.0292ZM13.1054 20.9836C13.1054 21.009 13.0884 21.0343 13.0628 21.0343C13.0415 21.0343 13.0202 21.009 13.0202 20.9836C13.0202 20.9532 13.0415 20.9329 13.0628 20.9329C13.0884 20.9329 13.1054 20.9532 13.1054 20.9836ZM13.3952 21.0647C13.3995 21.0647 13.3483 21.0698 13.2801 21.0698C13.1864 21.0698 13.1693 21.0546 13.2077 21.0039C13.2418 20.9583 13.2716 20.9583 13.3185 20.9988C13.3526 21.0292 13.3867 21.0597 13.3952 21.0647ZM21.4537 21.3841C21.5986 21.5969 21.6199 21.6932 21.5262 21.6932C21.4452 21.6932 21.1895 21.303 21.2236 21.2371C21.2705 21.1509 21.3174 21.1813 21.4537 21.3841ZM12.7517 21.2675C12.7389 21.2827 12.7006 21.2878 12.6708 21.2725C12.6367 21.2573 12.6494 21.2421 12.6963 21.2421C12.7432 21.2371 12.7688 21.2523 12.7517 21.2675ZM13.587 21.3739C13.5571 21.3841 13.506 21.3841 13.4804 21.3739C13.4506 21.3587 13.4719 21.3486 13.5316 21.3486C13.5912 21.3486 13.6125 21.3587 13.587 21.3739ZM7.395 21.5767C7.395 21.6426 7.07965 21.9974 7.02425 21.9974C6.9305 21.9974 6.96033 21.8859 7.10522 21.7085C7.2288 21.5564 7.395 21.4804 7.395 21.5767ZM22.0716 21.7287C22.2336 21.9315 22.2677 22.0481 22.1654 22.0481C22.1057 22.0481 21.8415 21.7237 21.8415 21.6476C21.8415 21.6121 21.8841 21.5412 21.9097 21.5412C21.9182 21.5412 21.9907 21.6274 22.0716 21.7287ZM25.1442 21.8453C25.2763 22.0075 25.3019 22.0582 25.255 22.1089C25.2124 22.1646 25.1698 22.1342 25.0334 21.9568C24.8842 21.7693 24.8501 21.6426 24.9482 21.6426C24.9652 21.6426 25.0547 21.7338 25.1442 21.8453ZM22.0077 22.1545C22.1185 22.3116 22.1398 22.3724 22.1015 22.4181C22.0589 22.4637 22.0162 22.4333 21.9012 22.2914C21.752 22.0987 21.7137 21.9467 21.8117 21.9467C21.8373 21.9467 21.9267 22.043 22.0077 22.1545ZM6.79839 22.3015C6.79839 22.3877 6.56827 22.7526 6.51287 22.7577C6.42338 22.7577 6.44895 22.6005 6.56827 22.4181C6.67055 22.2609 6.79839 22.195 6.79839 22.3015ZM22.6043 22.4383C22.745 22.6411 22.7705 22.7577 22.681 22.7577C22.6043 22.7577 22.3401 22.3674 22.3742 22.3015C22.4211 22.2153 22.4722 22.2457 22.6043 22.4383ZM22.5447 22.859C22.6768 23.0162 22.6981 23.077 22.6597 23.1226C22.6171 23.1733 22.5702 23.1429 22.4339 22.9756C22.3359 22.8641 22.2719 22.7425 22.2847 22.7121C22.3316 22.6259 22.3657 22.6411 22.5447 22.859ZM23.1583 23.1378C23.2563 23.2544 23.2947 23.3355 23.2734 23.3963C23.2478 23.4724 23.2222 23.4571 23.0774 23.2899C22.9069 23.0922 22.86 22.9604 22.9623 22.9604C22.9879 22.9604 23.0774 23.0415 23.1583 23.1378ZM6.41486 23.1429C6.41486 23.2797 6.26996 23.7207 6.23161 23.7055C6.12081 23.6599 6.23161 23.1125 6.35093 23.1125C6.38503 23.1125 6.41486 23.1277 6.41486 23.1429ZM23.218 23.8272C23.1583 23.8981 23.0816 23.8373 22.9452 23.6092C22.8004 23.3659 22.8984 23.3355 23.0901 23.5636C23.2265 23.7207 23.2563 23.7815 23.218 23.8272ZM23.8103 24.0857C23.7251 24.187 23.4183 23.7917 23.4865 23.665C23.5035 23.6295 23.5802 23.6903 23.6868 23.817C23.8231 23.9792 23.8529 24.035 23.8103 24.0857ZM6.21883 24.1211C6.2657 24.2073 6.19326 24.6838 6.1336 24.6838C6.09098 24.6838 6.07394 24.6077 6.07394 24.4151C6.07394 24.2631 6.08672 24.1262 6.10377 24.111C6.14212 24.0603 6.19326 24.0654 6.21883 24.1211ZM23.6868 24.2935C23.789 24.4405 23.8061 24.4962 23.7635 24.5469C23.7251 24.5925 23.6825 24.5672 23.5674 24.405C23.4865 24.2935 23.4225 24.1718 23.4183 24.1364C23.4183 24.0147 23.5546 24.0958 23.6868 24.2935ZM24.2237 24.5013C24.326 24.628 24.3601 24.704 24.3388 24.7699C24.3132 24.851 24.2834 24.8308 24.1385 24.6432C24.0447 24.5266 23.9808 24.405 23.9936 24.3796C24.0362 24.2985 24.0745 24.3188 24.2237 24.5013ZM31.8859 24.5418C32.6444 25.368 33.7183 26.838 33.9442 27.3702C34.2042 27.9733 34.2809 28.688 34.1274 29.0986C33.7823 30.0262 32.2055 30.4266 29.8787 30.1833C28.7707 30.0667 27.211 29.722 27.211 29.5903C27.211 29.4787 27.6116 28.6424 27.8716 28.2065C28.7196 26.7974 30.2111 25.0589 30.9825 24.5925C31.2126 24.4557 31.4938 24.3391 31.6132 24.334C31.6515 24.329 31.7751 24.4253 31.8859 24.5418ZM24.1811 24.9727C24.3175 25.1704 24.343 25.2667 24.2748 25.3174C24.2237 25.3528 23.9211 24.8916 23.9552 24.8308C23.9978 24.7497 24.049 24.7851 24.1811 24.9727ZM6.2998 25.0639C6.31684 25.1045 6.30832 25.1501 6.28701 25.1653C6.26144 25.1856 6.2444 25.3123 6.2444 25.4491C6.2444 25.6316 6.22735 25.6975 6.19326 25.6874C6.12933 25.662 6.04837 25.1856 6.08672 25.069C6.12081 24.9676 6.26996 24.9625 6.2998 25.0639ZM24.7351 25.2515C24.8629 25.4542 24.8715 25.5454 24.7692 25.5454C24.6967 25.5404 24.4709 25.1501 24.505 25.0893C24.5518 24.998 24.603 25.0335 24.7351 25.2515ZM6.8751 25.2869C7.04982 25.3478 7.13079 25.4948 6.9859 25.4948C6.84953 25.4948 6.58532 25.3782 6.58532 25.3174C6.58532 25.2464 6.63219 25.1856 6.66629 25.2109C6.67907 25.221 6.77282 25.2565 6.8751 25.2869ZM27.5008 25.7127C27.5093 25.9357 27.5008 26.0016 27.4539 26.0016C27.4113 26.0016 27.3857 25.9205 27.3687 25.733C27.3474 25.4491 27.3602 25.3782 27.4369 25.4086C27.4667 25.4187 27.4923 25.5556 27.5008 25.7127ZM8.60101 25.6265L8.8013 25.657V26.1892C8.8013 26.7923 8.91636 27.5678 9.0783 28.0342C9.1337 28.2014 9.16779 28.3332 9.15074 28.3383C9.02716 28.3535 8.60101 28.318 8.54561 28.2825C8.47316 28.2369 8.25583 27.4766 8.11946 26.8126C8.03849 26.3919 8.0044 25.6519 8.06406 25.5759C8.08111 25.5556 8.16207 25.5505 8.2473 25.5657C8.32827 25.5809 8.48595 25.6063 8.60101 25.6265ZM24.6882 25.7735C24.7905 25.9712 24.8118 26.103 24.7308 26.103C24.6584 26.103 24.4283 25.6671 24.4623 25.6012C24.5007 25.5201 24.5817 25.586 24.6882 25.7735ZM25.1911 26.0574C25.2592 26.2196 25.2678 26.3564 25.2081 26.3564C25.1399 26.3564 24.9439 25.9509 24.9695 25.8648C25.0036 25.7685 25.1016 25.8546 25.1911 26.0574ZM6.37224 26.174C6.39355 26.2399 6.42338 26.3767 6.43616 26.4781C6.46173 26.6251 6.45321 26.6606 6.40207 26.6606C6.32963 26.6606 6.18047 26.1841 6.22735 26.0979C6.26996 26.0168 6.32963 26.0523 6.37224 26.174ZM27.488 26.4173C27.5008 26.4527 27.4965 26.5845 27.4752 26.7112C27.4539 26.8684 27.4198 26.9444 27.3644 26.9545C27.2963 26.9697 27.292 26.9444 27.3176 26.7264C27.3516 26.4122 27.3687 26.3564 27.4241 26.3564C27.4497 26.3564 27.4795 26.3868 27.488 26.4173ZM25.059 26.5693C25.1399 26.8075 25.1527 26.9241 25.093 26.9495C25.0504 26.9697 24.8672 26.5693 24.8672 26.4527C24.8672 26.3362 25.0078 26.4274 25.059 26.5693ZM25.434 26.7315C25.4468 26.7721 25.5022 26.8126 25.5533 26.8228C25.6897 26.843 25.711 26.9647 25.5789 26.9647C25.4979 26.9647 25.4681 26.9951 25.4553 27.0762C25.4468 27.1421 25.4127 27.1978 25.3743 27.208C25.3189 27.2181 25.3061 27.1725 25.3019 26.9393C25.3019 26.7417 25.3146 26.6606 25.3573 26.6606C25.3871 26.6606 25.4212 26.691 25.434 26.7315ZM26.461 26.9444C26.6144 26.9697 26.657 27.0002 26.657 27.0762C26.657 27.1624 26.6357 27.1674 26.4354 27.137C26.1883 27.1015 26.0604 27.0407 26.0604 26.9647C26.0604 26.9039 26.1797 26.8988 26.461 26.9444ZM6.60662 27.0154C6.61941 27.0407 6.61089 27.066 6.58958 27.066C6.56401 27.066 6.5427 27.0407 6.5427 27.0154C6.5427 26.985 6.55122 26.9647 6.55975 26.9647C6.57253 26.9647 6.59384 26.985 6.60662 27.0154ZM27.2877 27.0965C27.3389 27.1167 27.3815 27.1624 27.3815 27.2029C27.3815 27.3144 27.1087 27.2688 27.0917 27.1522C27.0747 27.061 27.1258 27.0458 27.2877 27.0965ZM7.2288 27.3803C7.37796 27.431 7.46319 27.5729 7.34813 27.5729C7.21176 27.5729 6.92624 27.4513 6.92624 27.3904C6.92624 27.3043 7.01147 27.2992 7.2288 27.3803ZM25.1229 27.431C25.1229 27.654 25.0334 27.9277 24.9652 27.9277C24.9141 27.9277 24.9055 27.8922 24.9226 27.7605C24.9737 27.3955 25.1229 27.1522 25.1229 27.431ZM25.6215 27.3955C25.6343 27.4411 25.6343 27.4868 25.6215 27.502C25.5746 27.5577 25.336 27.4614 25.336 27.3904C25.336 27.2891 25.5874 27.2941 25.6215 27.3955ZM27.3517 27.36C27.3644 27.3803 27.3516 27.5172 27.3303 27.6642C27.2877 27.8973 27.2281 27.9835 27.1599 27.9024C27.1386 27.877 27.1855 27.5425 27.2323 27.3803C27.2536 27.3144 27.3218 27.2992 27.3517 27.36ZM18.8158 27.4563C18.8158 27.4817 18.7349 27.502 18.6326 27.507C18.5005 27.5121 18.4749 27.502 18.5388 27.4715C18.6454 27.4158 18.8158 27.4107 18.8158 27.4563ZM26.4397 27.502C26.4823 27.5476 26.3928 27.6794 26.3331 27.654C26.2948 27.6388 26.2138 27.6236 26.1542 27.6236C26.0093 27.6236 25.9113 27.5526 25.9539 27.4715C25.9752 27.431 26.0519 27.4259 26.2053 27.4462C26.3246 27.4665 26.4312 27.4918 26.4397 27.502ZM19.0289 27.6642C19.0417 27.6743 19.0119 27.6794 18.965 27.6692C18.9181 27.6591 18.8585 27.6692 18.8329 27.6844C18.8073 27.7047 18.786 27.6895 18.786 27.6489C18.786 27.6084 18.8031 27.5881 18.8244 27.6033C18.8414 27.6185 18.8585 27.6033 18.8585 27.5678C18.8585 27.5273 18.8798 27.5273 18.9352 27.578C18.9735 27.6135 19.0161 27.654 19.0289 27.6642ZM18.6667 27.6185C18.607 27.6794 18.3556 27.7453 18.411 27.6844C18.4366 27.654 18.492 27.6236 18.5388 27.6084C18.6837 27.5678 18.7093 27.5678 18.6667 27.6185ZM25.3573 27.8061C25.3189 28.1102 25.2933 28.1913 25.2337 28.166C25.1357 28.1254 25.2124 27.5729 25.3189 27.5729C25.3786 27.5729 25.3828 27.6135 25.3573 27.8061ZM27.0363 27.6185C27.0747 27.6489 27.0832 27.7098 27.0619 27.8213C27.032 27.9936 26.9127 28.0392 26.9127 27.877C26.9127 27.8264 26.8744 27.7554 26.8275 27.725C26.7806 27.6946 26.7423 27.6489 26.7423 27.6236C26.7423 27.5628 26.9553 27.5577 27.0363 27.6185ZM18.2107 27.7148C18.1255 27.7351 18.1084 27.8264 18.1894 27.8264C18.215 27.8314 18.1937 27.8618 18.134 27.9024C18.0104 27.9886 17.9465 27.9987 17.9849 27.9328C17.9976 27.9075 17.9849 27.877 17.955 27.8618C17.9252 27.8517 17.9593 27.8517 18.0275 27.8618C18.117 27.877 18.1383 27.8669 18.0957 27.8365C18.0573 27.801 18.053 27.7757 18.0871 27.7554C18.1127 27.7351 18.1255 27.6996 18.1127 27.6743C18.0999 27.654 18.134 27.6489 18.1851 27.6642C18.2661 27.6895 18.2704 27.6996 18.2107 27.7148ZM17.9849 27.725C17.8698 27.7858 17.8016 27.7858 17.8783 27.725C17.9124 27.6996 17.9721 27.6794 18.0062 27.6794C18.0488 27.6794 18.0403 27.6946 17.9849 27.725ZM18.6582 27.7605C18.6283 27.7706 18.5772 27.7706 18.5516 27.7605C18.5218 27.7453 18.5431 27.7351 18.6028 27.7351C18.6624 27.7351 18.6837 27.7453 18.6582 27.7605ZM18.3769 27.8061C18.3641 27.8213 18.3258 27.8264 18.2959 27.8111C18.2619 27.7959 18.2746 27.7807 18.3215 27.7807C18.3684 27.7757 18.394 27.7909 18.3769 27.8061ZM17.6951 27.9075C17.6823 27.9227 17.6439 27.9277 17.6141 27.9125C17.58 27.8973 17.5928 27.8821 17.6397 27.8821C17.6865 27.877 17.7121 27.8922 17.6951 27.9075ZM17.8314 28.0038C17.8229 28.0139 17.7547 28.0342 17.6865 28.0494L17.5587 28.0798L17.678 28.019C17.7419 27.9835 17.7931 27.9328 17.7973 27.9075C17.7973 27.877 17.8101 27.8821 17.8229 27.9176C17.8357 27.9531 17.8357 27.9936 17.8314 28.0038ZM17.2604 28.0696C17.2476 28.0849 17.2135 28.0696 17.1837 28.0342C17.1453 27.9835 17.1496 27.9784 17.2093 28.0088C17.2519 28.024 17.2732 28.0544 17.2604 28.0696ZM16.9237 28.1558C16.8769 28.1964 16.8215 28.2318 16.7959 28.2318C16.7746 28.2318 16.7916 28.1964 16.8385 28.1558C16.8811 28.1153 16.9408 28.0849 16.9621 28.0849C16.9877 28.0849 16.9664 28.1153 16.9237 28.1558ZM17.5076 28.1153C17.4777 28.1254 17.4266 28.1254 17.401 28.1153C17.3712 28.1001 17.3925 28.0899 17.4522 28.0899C17.5118 28.0899 17.5331 28.1001 17.5076 28.1153ZM17.1837 28.1609C17.1709 28.1761 17.1326 28.1812 17.1027 28.166C17.0686 28.1507 17.0814 28.1355 17.1283 28.1355C17.1752 28.1305 17.2007 28.1457 17.1837 28.1609ZM24.9269 28.4549C24.9141 28.5258 24.8757 28.5867 24.8416 28.5867C24.7692 28.5867 24.7607 28.3788 24.8331 28.2927C24.9055 28.2065 24.9609 28.2977 24.9269 28.4549ZM26.9553 28.3484C26.9553 28.5106 26.8616 28.7894 26.8062 28.7894C26.7252 28.7894 26.7252 28.6323 26.8062 28.4042C26.8616 28.2369 26.9553 28.2065 26.9553 28.3484ZM16.8683 28.318C16.8385 28.3282 16.7788 28.3282 16.7405 28.318C16.6979 28.3028 16.7234 28.2927 16.7916 28.2927C16.8641 28.2927 16.8939 28.3028 16.8683 28.318ZM27.1684 28.3788C27.1684 28.4903 27.0832 28.7995 27.0363 28.8604C26.9681 28.9516 26.9468 28.7336 26.9979 28.5106C27.0491 28.2825 27.1684 28.1913 27.1684 28.3788ZM16.2632 28.4701C16.3186 28.5562 16.3186 28.5562 16.2376 28.4853C16.1908 28.4447 16.1439 28.4042 16.1354 28.3991C16.1268 28.389 16.1354 28.3839 16.1609 28.3839C16.1865 28.3839 16.2334 28.4245 16.2632 28.4701ZM16.0927 28.5106C16.0927 28.5765 15.918 28.6069 15.918 28.5461C15.918 28.4903 16.0033 28.4346 16.0587 28.4549C16.08 28.4599 16.0927 28.4853 16.0927 28.5106ZM9.09535 28.5968C9.10387 28.6221 9.21467 28.7945 9.34677 28.9769C9.62803 29.3723 10.0371 29.7829 10.3695 30.0008C10.719 30.234 10.4761 30.1427 9.97322 29.8538C9.49593 29.5801 9.11239 29.2507 8.73738 28.7894L8.48169 28.4751L8.77999 28.5106C8.94619 28.5309 9.08682 28.5714 9.09535 28.5968ZM25.2124 28.5512C25.2081 28.5714 25.2081 28.6221 25.2081 28.6627C25.2081 28.7032 25.1783 28.7387 25.1442 28.7387C25.0803 28.7387 25.0547 28.5816 25.1101 28.5157C25.1442 28.4751 25.2166 28.5005 25.2124 28.5512ZM15.8456 28.6221C15.8157 28.6323 15.7646 28.6323 15.739 28.6221C15.7092 28.6069 15.7305 28.5968 15.7902 28.5968C15.8498 28.5968 15.8711 28.6069 15.8456 28.6221ZM26.7082 29.2709C26.657 29.4027 26.5292 29.4483 26.5292 29.3318C26.5292 29.2963 26.559 29.2152 26.5974 29.1493C26.6911 28.9921 26.7806 29.0834 26.7082 29.2709ZM26.9298 29.2354C26.9681 29.3064 26.9042 29.499 26.8445 29.499C26.7593 29.499 26.7337 29.4129 26.7849 29.2963C26.8317 29.1898 26.8914 29.1645 26.9298 29.2354Z" fill="#F7FBFE"/>
<path d="M13.6168 11.7788C13.6168 11.789 13.6509 11.8295 13.6935 11.865C13.7574 11.9309 13.7617 11.9258 13.7063 11.8447C13.6509 11.7636 13.6168 11.7383 13.6168 11.7788Z" fill="#F7FBFE"/>
<path d="M13.7873 12.1083C13.7873 12.1337 13.8171 12.1641 13.8469 12.1793C13.8895 12.1996 13.9023 12.1844 13.8853 12.1337C13.8597 12.0577 13.7873 12.0374 13.7873 12.1083Z" fill="#F7FBFE"/>
<path d="M14.1623 12.4277C14.1836 12.4531 14.2305 12.4683 14.2603 12.4581C14.2944 12.4429 14.2731 12.4226 14.2177 12.4024C14.1452 12.3821 14.1282 12.3872 14.1623 12.4277Z" fill="#F7FBFE"/>
<path d="M14.5756 12.671C14.6225 12.6963 14.6992 12.7115 14.7461 12.7115C14.8143 12.7115 14.81 12.7014 14.7248 12.671C14.5799 12.6152 14.4691 12.6152 14.5756 12.671Z" fill="#F7FBFE"/>
<path d="M14.8867 12.6557C14.9166 12.6709 14.9549 12.6659 14.9677 12.6507C14.9847 12.6355 14.9592 12.6203 14.9123 12.6253C14.8654 12.6253 14.8526 12.6405 14.8867 12.6557Z" fill="#F7FBFE"/>
<path d="M14.8867 12.7572C14.9166 12.7724 14.9549 12.7673 14.9677 12.7521C14.9847 12.7369 14.9592 12.7217 14.9123 12.7268C14.8654 12.7268 14.8526 12.742 14.8867 12.7572Z" fill="#F7FBFE"/>
<path d="M24.2493 15.6361C24.0873 15.8135 23.9638 15.9706 23.9765 15.9858C23.9893 16.001 24.1981 15.9909 24.4368 15.9706L24.88 15.925L25.0845 15.6817C25.1996 15.5449 25.2933 15.408 25.2933 15.3725C25.2933 15.3218 25.1953 15.3066 24.9226 15.3066L24.5476 15.3117L24.2493 15.6361Z" fill="#F7FBFE"/>
<path d="M19.2463 15.9504C19.242 16.1836 19.3315 16.3357 19.519 16.4218C19.6255 16.4725 19.9238 16.3965 19.9238 16.3204C19.9238 16.3002 19.8557 16.3002 19.7704 16.3306C19.6852 16.3559 19.6042 16.3661 19.5914 16.3509C19.5787 16.3306 19.6 16.2393 19.6383 16.143C19.7235 15.9352 19.7278 15.8339 19.6639 15.7832C19.6042 15.7426 19.5318 15.8339 19.4721 16.0315L19.421 16.1937L19.3357 15.9656L19.2463 15.7375V15.9504Z" fill="#F7FBFE"/>
<path d="M25.9155 17.0859C25.6257 17.1264 25.6172 17.1264 25.3402 17.4508C25.1868 17.6333 25.0078 17.8361 24.9439 17.907C24.8757 17.9729 24.8246 18.0388 24.8246 18.054C24.8246 18.0642 24.9269 18.0591 25.0504 18.0388C25.1698 18.0185 25.3615 17.9983 25.4723 17.9983C25.6684 17.9932 25.6769 17.9831 25.9922 17.5624C26.1712 17.3241 26.3161 17.1112 26.3161 17.091C26.3161 17.0403 26.3033 17.0403 25.9155 17.0859Z" fill="#F7FBFE"/>
<path d="M20.3713 17.7346C20.3287 17.8968 20.3798 18.1654 20.4736 18.2668C20.5758 18.3783 20.8273 18.4239 20.9296 18.353C21.002 18.3074 20.9977 18.3023 20.8955 18.2972C20.7634 18.2972 20.7548 18.2617 20.823 18.0742C20.8955 17.8867 20.806 17.7701 20.6185 17.8157C20.4991 17.841 20.4693 17.8309 20.4395 17.7295L20.4054 17.6129L20.3713 17.7346Z" fill="#F7FBFE"/>
<path d="M26.8744 19.0576L26.5547 19.093L26.3331 19.3921C26.2096 19.5543 26.1158 19.7013 26.1243 19.7114C26.1329 19.7216 26.3118 19.6912 26.5164 19.6455C26.7209 19.5948 26.9383 19.5492 26.9979 19.534C27.0661 19.5188 27.1471 19.4326 27.2238 19.2907C27.3602 19.0322 27.3644 19.0069 27.2664 19.0119C27.2238 19.017 27.0491 19.0373 26.8744 19.0576Z" fill="#F7FBFE"/>
<path d="M21.7137 19.828C21.7137 20.1929 22.029 20.4261 22.2932 20.2538L22.4168 20.1777L22.2591 20.1727C22.0716 20.1727 22.0248 20.1068 22.1015 19.9395C22.1697 19.7824 22.1185 19.7165 21.8884 19.681L21.7137 19.6506V19.828Z" fill="#F7FBFE"/>
<path d="M27.7267 20.9431C27.5051 21.2573 26.8658 22.2609 26.8786 22.2761C26.8957 22.2964 27.4667 22.1697 27.4838 22.1443C27.5306 22.0785 28.2253 20.9481 28.2508 20.8924C28.2721 20.8468 28.221 20.8316 28.0463 20.8316C27.8502 20.8316 27.7906 20.8518 27.7267 20.9431Z" fill="#F7FBFE"/>
<path d="M23.022 21.5159C22.9793 21.6426 23.039 21.8808 23.137 21.9873C23.2436 22.1039 23.4566 22.1697 23.5419 22.1039C23.5802 22.0734 23.5632 22.0582 23.4865 22.0582C23.333 22.0582 23.316 22.0278 23.3671 21.8454C23.4268 21.6527 23.397 21.5564 23.2691 21.521C23.2137 21.5057 23.1413 21.4804 23.1072 21.4601C23.0731 21.4449 23.0347 21.4703 23.022 21.5159Z" fill="#F7FBFE"/>
<path d="M24.343 23.4218C24.2706 23.7411 24.4624 24.03 24.7351 24.0199C24.8331 24.0148 24.8544 24.0047 24.7947 23.9895C24.6882 23.9641 24.6797 23.9236 24.7351 23.6803C24.7734 23.5232 24.7734 23.5181 24.6499 23.5181C24.5732 23.5181 24.5092 23.4826 24.4751 23.4167C24.407 23.2849 24.3729 23.29 24.343 23.4218Z" fill="#F7FBFE"/>
<path d="M26.8104 23.817C26.7977 23.8424 26.8104 23.888 26.8445 23.9184C26.8871 23.964 26.9255 23.9539 27.0022 23.8728L27.1045 23.7765L26.9681 23.7714C26.8957 23.7714 26.8232 23.7917 26.8104 23.817Z" fill="#F7FBFE"/>
<path d="M25.9496 24.9372C25.6343 25.0893 25.6513 25.7077 25.9709 25.8394C26.1073 25.8952 26.2948 25.8648 26.3587 25.7736C26.3928 25.7279 26.3758 25.7077 26.2905 25.7077C26.1329 25.7077 25.9837 25.6012 25.9539 25.4593C25.9411 25.3883 25.9624 25.2464 26.0135 25.1146C26.103 24.8764 26.0988 24.8663 25.9496 24.9372Z" fill="#F7FBFE"/>
<path d="M18.1724 13.7811C17.9039 14.1004 18.0701 14.5972 18.4451 14.5972C18.6965 14.5972 18.8585 14.4046 18.8585 14.1055C18.8585 13.6797 18.428 13.477 18.1724 13.7811Z" fill="#F7FBFE"/>
<path d="M17.7846 31.7647C17.8144 31.78 17.8527 31.7749 17.8655 31.7597C17.8826 31.7445 17.857 31.7293 17.8101 31.7343C17.7633 31.7343 17.7505 31.7495 17.7846 31.7647Z" fill="#F7FBFE"/>
</svg>
