<svg width="60" height="60" viewBox="0 0 60 60" fill="none" xmlns="http://www.w3.org/2000/svg">
<rect width="60" height="60" rx="10" fill="black"/>
<path d="M19.1723 9.07691C18.7249 9.19856 18.2071 9.49507 17.8363 9.83721C17.6957 9.96646 17.5231 10.1109 17.4592 10.1565C17.3889 10.2022 17.3122 10.2858 17.2866 10.3466C17.261 10.4074 17.1651 10.6203 17.0757 10.8332C16.4556 12.2626 16.2574 12.734 16.0401 13.3422C15.9059 13.7148 15.7461 14.0797 15.6821 14.1557C15.6182 14.2318 15.5671 14.3762 15.5671 14.4751C15.5671 14.5739 15.3497 15.319 15.0813 16.1325C14.8128 16.9384 14.5251 17.828 14.4484 18.1017C14.3653 18.3754 14.1991 18.7632 14.0713 18.9608C13.9434 19.1585 13.8412 19.3486 13.8412 19.3866C13.8412 19.417 13.7325 19.6679 13.5983 19.9264C13.0102 21.0821 12.6202 22.6711 12.7225 23.4846C12.7864 24.0016 12.9846 24.5719 13.285 25.1041C13.6047 25.6743 14.5124 26.8148 15.2027 27.5066L15.7077 28.016L15.5223 28.1909C14.9726 28.7383 12.7609 30.2893 12.5819 30.2513C12.4285 30.2209 12.2942 30.2817 12.1344 30.4566C12.0386 30.5631 11.8404 30.7227 11.6998 30.8064C10.9583 31.2549 9.90354 32.2205 9.20039 33.0873C8.06896 34.4862 7.49365 35.8396 7.50005 37.1017C7.50005 37.7555 7.58954 38.0977 7.96029 38.8503C8.5292 40.0136 9.69259 41.5798 10.6195 42.4314C11.0605 42.8419 12.1664 43.6479 12.697 43.9444C12.8951 44.0508 13.2467 44.3245 13.4704 44.5374C13.9371 44.9784 14.7105 45.5334 15.1644 45.7615C15.6182 45.9896 16.494 46.2329 17.0053 46.2785C17.7788 46.3469 19.3002 45.906 21.6717 44.9252C23.9154 44.0052 25.9737 43.2981 28.2621 42.6671L28.7735 42.5226L29.2849 43.0928C30.5058 44.4462 31.6436 45.4042 33.2545 46.4306C33.5996 46.6511 33.8745 46.8639 33.8681 46.902C33.8553 46.9476 33.8873 46.9628 33.9384 46.94C33.9832 46.9172 34.3092 47.0692 34.6544 47.2821C34.9996 47.4874 35.4406 47.7307 35.6196 47.8219C35.8114 47.9208 35.9392 48.0272 35.9136 48.0728C35.8945 48.1184 35.9073 48.126 35.9456 48.0956C35.9904 48.0652 36.4314 48.2401 36.93 48.4758C40.2029 50.0268 43.2903 50.8099 46.1221 50.8099C47.3302 50.8099 47.9631 50.7339 48.8068 50.483C50.1045 50.0952 51.1336 49.3121 51.7409 48.2553C52.0094 47.7915 52.3354 46.94 52.3609 46.6434C52.3737 46.5142 52.4185 46.1797 52.4568 45.8907C52.5975 44.8872 52.3865 43.435 51.939 42.2945C51.5044 41.1845 50.1812 39.2229 48.4489 37.1397C48.1037 36.7139 47.5092 35.9612 47.1385 35.467C46.5632 34.6915 46.4545 34.509 46.4289 34.2353C46.3586 33.6119 45.5212 32.3878 45.1632 32.3878C44.9843 32.3878 44.8245 32.1141 44.8692 31.886C44.9779 31.369 43.9551 29.5747 43.5524 29.5747C43.4565 29.5747 43.367 29.5442 43.3478 29.5062C43.3287 29.4758 43.3031 28.5102 43.2839 27.3622C43.2584 25.0585 43.2264 24.838 42.8301 23.9104C42.3507 22.7852 41.3726 21.8728 40.2092 21.4698C39.7298 21.3102 39.602 21.2113 39.602 21.0213C39.602 20.9376 39.423 20.3218 39.1993 19.6527C38.8733 18.6643 38.7646 18.421 38.6368 18.345C38.5153 18.269 38.4066 18.0713 38.2276 17.5467C37.5884 15.6839 36.9812 14.5739 36.4378 14.285C35.92 14.0037 35.5493 14.0949 34.2708 14.802C32.8454 15.5927 32.2317 15.8132 31.4838 15.8132C30.7551 15.8056 30.1095 15.5623 28.7991 14.7868C27.7379 14.1633 26.6193 13.3422 24.6121 11.7076C22.7328 10.1793 21.8123 9.54069 21.058 9.24418C20.4252 8.99328 19.7093 8.93245 19.1723 9.07691ZM20.9685 9.49508C21.5375 9.73837 22.2406 10.2402 23.5382 11.3578C25.6477 13.1597 26.7024 13.9733 27.7124 14.5815C28.684 15.1669 29.9241 15.7143 30.7295 15.9196C31.1322 16.0185 31.1322 16.0185 30.9405 16.1097C29.9688 16.5735 28.7032 17.2578 28.4347 17.463C28.2493 17.5999 27.9745 17.8964 27.8274 18.1321L27.5526 18.5427L27.0092 18.5047C26.5554 18.4666 26.3508 18.4895 25.7627 18.6567C24.8486 18.9152 24.6888 18.9913 24.7464 19.1509C24.8486 19.4474 24.8486 19.5387 24.7464 19.5387C24.6888 19.5387 24.6121 19.455 24.5738 19.3562C24.5354 19.2574 24.4331 19.1585 24.35 19.1357C24.2094 19.1053 24.2094 19.1129 24.2989 19.3182C24.3437 19.4322 24.3884 19.5691 24.3884 19.6147C24.3884 19.744 24.2158 19.6983 24.1263 19.5387C24.0368 19.3942 24.0304 19.3942 23.6789 19.5387C22.0424 20.2077 20.1823 19.1433 19.2298 16.9764C19.0828 16.6495 19.0125 16.5659 18.8463 16.5279C18.6162 16.4747 18.5587 16.277 18.7568 16.2162C18.8719 16.1781 18.8719 16.1629 18.7185 15.7143C18.1751 14.1405 17.913 12.2246 18.0537 10.9929C18.092 10.6583 18.1751 10.2858 18.239 10.1641C18.3989 9.82961 18.7696 9.50268 19.1212 9.38863C19.5686 9.23657 20.4827 9.2898 20.9685 9.49508ZM17.7404 10.5291C17.7404 10.7116 17.7085 10.7952 17.651 10.7952C17.5231 10.7952 17.4911 10.7116 17.5295 10.4683C17.5806 10.1641 17.7404 10.2022 17.7404 10.5291ZM17.6765 11.4338C17.6765 11.4871 17.6957 11.6923 17.7149 11.89C17.7532 12.2094 17.7468 12.2398 17.619 12.2398C17.4975 12.2398 17.4848 12.1941 17.4848 11.8368C17.4848 11.6087 17.5039 11.4034 17.5295 11.3806C17.5998 11.297 17.6765 11.3198 17.6765 11.4338ZM17.7724 12.8632C17.7852 12.9164 17.8108 13.1293 17.8363 13.327C17.8747 13.6539 17.8683 13.6919 17.766 13.6691C17.6829 13.6539 17.6318 13.5399 17.5998 13.3042C17.5423 12.9392 17.5679 12.772 17.6765 12.772C17.7149 12.772 17.7532 12.8176 17.7724 12.8632ZM16.1296 14.4294C16.1488 14.6347 16.1296 14.6727 16.0209 14.6727C15.9123 14.6727 15.8867 14.6271 15.8867 14.399C15.8867 14.1861 15.9059 14.1329 16.0018 14.1557C16.0721 14.1709 16.1168 14.2622 16.1296 14.4294ZM17.9897 14.4979C18.0856 14.9008 18.0792 15.1289 17.9706 15.1289C17.8683 15.1289 17.7021 14.4294 17.7724 14.2926C17.8491 14.1481 17.9258 14.2166 17.9897 14.4979ZM36.246 14.9921C36.5017 15.3494 37.2177 17.0373 37.5884 18.1701C37.7227 18.5655 37.8377 18.9076 37.8505 18.9228C37.8633 18.938 38.0103 18.8468 38.1701 18.7099C38.3299 18.5731 38.4642 18.4666 38.4769 18.4818C38.5217 18.5579 39.1545 20.5803 39.1545 20.6487C39.1481 20.6867 38.9372 20.9148 38.6751 21.1581C38.413 21.3938 38.1957 21.6219 38.1957 21.6523C38.1957 21.6903 38.2916 21.8272 38.413 21.964L38.6304 22.2149L38.8605 21.9184C38.9819 21.7588 39.0906 21.5763 39.0906 21.5079C39.0906 21.3558 39.391 21.2494 39.4933 21.3558C39.5381 21.3938 39.8449 21.5307 40.1773 21.6599C40.5097 21.7968 40.8804 21.9792 41.0083 22.0629C41.8712 22.6787 42.4977 23.5683 42.6958 24.4806C42.7214 24.5871 42.6639 24.4882 42.568 24.2678C42.3059 23.6291 41.7881 23.0285 41.2831 22.7471C40.9124 22.5495 40.1261 22.3138 40.0622 22.3898C40.0494 22.405 40.075 22.5571 40.1198 22.7243C40.1965 23.0285 40.1901 23.0513 39.9599 23.439C39.8321 23.6519 39.6595 23.9256 39.5892 24.0397L39.4486 24.2525L39.6148 24.4578C39.7043 24.5795 39.8193 24.7467 39.8705 24.838L39.9599 25.0052L40.2348 24.6783C40.401 24.473 40.548 24.359 40.612 24.3818C40.8421 24.4578 41.3918 25.5907 41.3918 25.986C41.3918 26.0621 41.2768 26.3206 41.1361 26.5563C40.9955 26.7844 40.8804 27.0048 40.8804 27.0429C40.8868 27.0733 41.0019 27.2557 41.1425 27.4458C41.4302 27.8184 41.4238 27.826 41.6603 27.1949C41.737 26.9972 41.8201 26.8452 41.8457 26.8528C41.9416 26.8984 42.7981 28.2745 42.7981 28.3886C42.7981 28.457 42.7022 28.7992 42.5872 29.1565L42.3698 29.7951L42.6319 30.0993C42.7789 30.2741 42.9132 30.411 42.9324 30.411C42.9515 30.411 43.0602 30.2589 43.1753 30.0689C43.2903 29.8788 43.4182 29.7267 43.4693 29.7267C43.6035 29.7267 44.0318 30.3578 44.2683 30.9052C44.4857 31.407 44.4857 31.4146 44.3706 31.6579C44.3131 31.7947 44.1021 32.1217 43.904 32.3878L43.5524 32.8668L43.8081 32.9732C44.0574 33.0721 44.083 33.0644 44.5176 32.7983C45.0801 32.4562 45.2016 32.4866 45.5532 33.0112C45.9367 33.5967 46.0901 33.9768 45.9815 34.1061C45.9367 34.1593 45.0354 34.9044 43.9807 35.7635C41.9671 37.3982 41.1745 37.9684 40.433 38.3105C40.1837 38.4322 39.8896 38.6299 39.7746 38.7515C39.4997 39.0632 39.3335 39.1545 39.0459 39.1545C38.3747 39.1545 37.908 38.1813 38.2596 37.5046C38.445 37.1397 38.6815 36.9876 39.0714 36.98C39.3846 36.9724 39.4294 36.9496 39.7618 36.577C40.0494 36.2577 40.1006 36.1513 40.0558 36.0448C39.9216 35.7559 39.8577 35.7483 38.8605 35.8396C37.9656 35.9232 37.8825 35.946 37.6971 36.1285C37.4286 36.3946 37.2816 36.4402 36.9428 36.3794C36.7382 36.349 36.5976 36.2577 36.4378 36.0676C35.8497 35.3758 36.2333 34.2125 37.0515 34.2125C37.1537 34.2125 37.4542 34.1365 37.7163 34.0452C38.1062 33.9084 38.1893 33.8552 38.1637 33.7487C38.1062 33.5358 38.2532 33.4978 38.4194 33.6803C38.5025 33.7715 38.6048 33.8248 38.6431 33.7943C38.6943 33.7563 38.6048 33.5967 38.3811 33.3306L38.0423 32.92L38.4833 32.3878C38.7262 32.0913 38.8988 31.8556 38.8669 31.8556C38.8285 31.8556 38.1829 32.0837 37.4286 32.3574C36.2972 32.7755 36.0223 32.9048 35.8625 33.0949C35.3 33.7639 34.5329 33.5891 34.2581 32.7223C34.1686 32.441 34.1622 32.3346 34.2261 32.0913C34.322 31.7035 34.6608 31.3538 34.9996 31.2853C35.153 31.2549 35.4278 31.1485 35.626 31.042L35.9776 30.8596L35.8369 30.6847C35.7666 30.5935 35.7027 30.4718 35.7027 30.4262C35.7027 30.2665 35.8689 30.3274 36.0543 30.5631C36.1757 30.7151 36.2588 30.7683 36.3036 30.7151C36.3419 30.6695 36.3291 30.5935 36.2524 30.4946C36.1502 30.3578 36.1566 30.335 36.4698 29.8788C36.6551 29.6203 36.7894 29.3998 36.7766 29.3846C36.7382 29.339 35.4982 29.7723 35.4598 29.8484C35.4342 29.894 35.3128 29.932 35.1913 29.932C35.0699 29.932 34.7503 29.9852 34.4818 30.0613C34.0727 30.1753 33.9832 30.2285 33.8873 30.4186C33.7467 30.7075 33.4782 30.8672 33.133 30.8672C32.8262 30.8672 32.4426 30.6315 32.4426 30.449C32.4426 30.3806 32.4171 30.3426 32.3851 30.3654C32.302 30.4262 32.187 30.0613 32.187 29.7343C32.187 29.3694 32.4043 28.974 32.6983 28.7992C32.8198 28.7231 33.2736 28.5026 33.7019 28.305L34.4882 27.9476L34.29 27.7043C34.1813 27.5675 34.1046 27.423 34.1302 27.385C34.1494 27.347 34.4306 27.0581 34.7503 26.7539C35.3256 26.1989 35.332 26.1913 35.1338 26.1685C34.8397 26.1305 34.1494 26.3358 33.0435 26.7767C32.1358 27.1341 32.0719 27.1721 31.976 27.4154C31.8546 27.7043 31.4646 27.978 31.1642 27.978C30.6848 27.978 30.2437 27.4382 30.2437 26.8452C30.2437 26.2902 30.4099 26.0849 31.2473 25.5831C31.6372 25.3398 31.976 25.1345 31.9888 25.1193C32.008 25.1041 31.9824 25.0433 31.9441 24.9976C31.8546 24.8912 31.8418 24.6327 31.9249 24.6327C31.9568 24.6327 32.0463 24.7239 32.123 24.838L32.2573 25.0433L32.4299 24.7848C32.5194 24.6403 32.8262 24.2297 33.1138 23.8876C33.6252 23.2489 33.6252 23.2489 33.4015 23.2946C33.28 23.3174 32.9029 23.3934 32.5705 23.4542C32.2381 23.5227 31.8546 23.6139 31.7203 23.6519C31.4774 23.7279 31.4774 23.7355 31.5733 23.9104C31.7842 24.2982 31.6244 24.3894 31.3624 24.0321L31.1962 23.804L30.8446 23.994C30.5633 24.1461 30.4674 24.2525 30.3652 24.4958C30.2054 24.876 29.8985 25.0889 29.5022 25.0889C29.1698 25.0889 28.7607 24.8608 28.7735 24.6783C28.7799 24.6099 28.7607 24.5795 28.7287 24.6023C28.6393 24.6631 28.4794 24.1461 28.4794 23.8116C28.4794 23.401 28.6968 23.0361 29.0867 22.808C29.2657 22.7015 29.4958 22.5495 29.5981 22.4582C30.199 21.9488 32.66 21.3634 34.6735 21.2493L35.594 21.1961L36.31 20.4966C37.0259 19.8124 37.2432 19.5463 37.0898 19.5691C37.0451 19.5691 37.0067 19.5539 37.0003 19.5159C36.9875 19.4854 36.8981 19.3486 36.8022 19.2117C36.6999 19.0825 36.2652 18.4895 35.8369 17.904C34.8334 16.5279 34.648 16.3226 33.8873 15.7828L33.5102 15.5091L33.8617 15.3266C34.2005 15.1517 35.0059 14.8096 35.2872 14.726C35.3575 14.7107 35.5493 14.6879 35.7155 14.6803C35.9904 14.6727 36.0287 14.6955 36.246 14.9921ZM16.315 15.5091C16.3725 15.7296 16.3789 15.8664 16.3342 15.9196C16.2447 16.0261 16.168 15.912 16.0849 15.5547C15.9634 15.0073 16.1871 14.9693 16.315 15.5091ZM18.3094 16.0641C18.3797 16.3378 18.3861 16.4442 18.3285 16.5127C18.271 16.5811 18.2327 16.5355 18.1623 16.3378C18.1112 16.1933 18.0473 15.9729 18.0217 15.8588C17.9834 15.6763 17.9961 15.6535 18.0984 15.6763C18.1751 15.6915 18.2454 15.8284 18.3094 16.0641ZM16.6793 16.6723C16.8072 17.0753 16.8072 17.1057 16.6793 17.1057C16.5834 17.1057 16.3981 16.6875 16.3981 16.4594C16.3981 16.2238 16.5771 16.353 16.6793 16.6723ZM18.4052 16.7864C18.4628 16.908 18.0153 17.3566 17.8939 17.3034C17.798 17.2578 17.8108 17.2197 17.9961 16.9917C18.2135 16.7256 18.3413 16.6647 18.4052 16.7864ZM18.8143 17.3262C18.9742 17.6607 18.9933 17.79 18.8783 17.79C18.7824 17.79 18.4372 17.1741 18.482 17.0905C18.5523 16.9536 18.6865 17.0449 18.8143 17.3262ZM17.5487 17.5619C17.5487 17.7976 16.9606 17.866 16.9222 17.6303C16.9095 17.5391 16.9734 17.5163 17.2291 17.5087C17.4017 17.5087 17.5487 17.5315 17.5487 17.5619ZM19.5622 18.4438C19.7029 18.6035 19.7796 18.7632 19.7604 18.8316C19.6901 19.0369 19.2107 18.5275 19.2107 18.2538C19.2107 18.1017 19.3321 18.1701 19.5622 18.4438ZM27.7443 18.7708C27.7955 18.8772 27.5973 18.9837 27.2969 19.0141C27.0987 19.0369 27.0412 19.0141 27.022 18.9152C27.0092 18.824 27.054 18.7784 27.1818 18.7556C27.5206 18.6947 27.706 18.7023 27.7443 18.7708ZM28.5753 19.0901C28.7991 19.3258 28.8694 19.5387 28.7224 19.5387C28.5881 19.5311 28.1407 19.0217 28.1918 18.938C28.2557 18.8088 28.3324 18.8392 28.5753 19.0901ZM26.5618 19.1661C26.5618 19.2346 26.0376 19.5387 25.9098 19.5387C25.8778 19.5387 25.8586 19.4778 25.8714 19.4094C25.8842 19.3334 26.012 19.2193 26.1782 19.1509C26.4659 19.0217 26.5618 19.0293 26.5618 19.1661ZM20.5083 19.3486C20.732 19.5311 20.8279 19.7668 20.6809 19.7668C20.5594 19.7668 20.1056 19.3714 20.1056 19.265C20.1056 19.1053 20.2398 19.1357 20.5083 19.3486ZM25.4112 19.6603C25.4112 19.7287 25.3536 19.7972 25.2833 19.82C25.1235 19.8732 25.1171 19.858 25.3472 20.2305C25.5326 20.5347 25.5454 20.6791 25.392 20.6791C25.3089 20.6791 25.0276 20.2001 25.0276 20.0633C25.0276 20.0177 24.9701 19.9949 24.8998 20.0177C24.8359 20.0405 24.7464 20.0101 24.7016 19.9492C24.6441 19.8656 24.6697 19.8276 24.8103 19.7668C24.9126 19.7211 25.0532 19.6603 25.1235 19.6223C25.3153 19.5159 25.4112 19.5235 25.4112 19.6603ZM14.0138 20.0481C13.9051 21.1277 14.2695 22.2301 15.0749 23.2337C16.104 24.5339 19.1659 27.6815 22.3748 30.7531C24.2925 32.5855 24.9573 33.2773 26.4339 34.9728C28.0192 36.7899 28.6584 37.4514 29.9177 38.569C34.3667 42.5302 39.3271 45.062 44.2683 45.8907C45.2847 46.0656 48.4872 46.096 49.0945 45.9364C50.0789 45.6779 50.6606 45.3813 51.0825 44.9176C51.4468 44.5222 51.6194 44.1801 51.7537 43.6098L51.8559 43.1461L51.939 43.4502C52.0733 43.99 52.0989 45.3053 51.971 45.9516C51.5427 48.2629 49.9894 49.6238 47.4005 49.9584C46.5823 50.0648 44.8117 50.004 43.693 49.8367C39.9472 49.2589 35.4918 47.3125 32.0591 44.7503C31.1898 44.104 29.9305 42.9028 28.9461 41.7699C28.8886 41.7091 28.7927 41.7015 28.6265 41.7471C25.6796 42.5682 24.9062 42.8267 21.6397 44.104C19.0189 45.1304 18.7824 45.1989 17.7916 45.2293C17.1268 45.2445 16.8967 45.2217 16.4876 45.0848C15.6118 44.8035 14.8128 44.1725 14.1927 43.2753C13.9243 42.8876 13.9051 42.8419 14.0202 42.8191C14.148 42.7963 14.1416 42.7811 13.9626 42.3097C13.8603 42.0436 13.7197 41.5722 13.6494 41.2681C13.4896 40.5686 13.3745 39.1773 13.4321 38.6527L13.4704 38.2497L13.2403 38.2041C12.9782 38.1433 12.9782 38.1357 13.0997 37.4286C13.317 36.2273 13.8028 34.7523 14.2247 34.0148C14.6402 33.3001 15.4904 32.479 16.3278 31.9696C16.9031 31.6275 17.7916 31.2473 18.0601 31.2245C18.2007 31.2169 18.3158 31.1865 18.3158 31.1485C18.3158 31.1181 18.3477 31.0953 18.3861 31.0953C18.4244 31.0953 18.4436 31.1485 18.418 31.2093C18.3989 31.2701 18.4116 31.3234 18.4436 31.3234C18.482 31.3234 18.5075 31.3538 18.5075 31.3918C18.5075 31.4298 18.45 31.445 18.3797 31.4222C18.3094 31.3994 18.2518 31.3538 18.2518 31.3158C18.2518 31.2777 18.2071 31.2473 18.1496 31.2473C18.0601 31.2473 18.0601 31.2701 18.124 31.3614C18.1687 31.4222 18.2454 31.4754 18.2902 31.4754C18.3413 31.4754 18.3797 31.5058 18.3797 31.5514C18.3797 31.5895 18.418 31.6275 18.4628 31.6275C18.5139 31.6275 18.6354 31.7111 18.7376 31.8176C18.9614 32.0532 19.2746 32.2433 19.3385 32.1977C19.3705 32.1749 19.46 32.1977 19.5431 32.2357C19.6773 32.3117 19.6773 32.3117 19.5111 32.2737C19.4024 32.2433 19.3449 32.2585 19.3641 32.3041C19.4088 32.3878 19.3769 32.403 18.629 32.6083C15.8803 33.3686 14.0841 36.6151 14.4165 40.2113C14.6338 42.5606 15.5799 44.0052 17.2291 44.5146C17.8939 44.7199 18.9678 44.6363 19.9777 44.3017C20.4188 44.1497 20.9494 43.9596 21.1539 43.8759C21.6014 43.6859 21.5758 43.6859 21.5758 43.8303C21.5758 43.8988 21.6142 43.9216 21.6781 43.8912C21.7612 43.8531 21.7612 43.8303 21.6909 43.7771C21.6333 43.7239 21.6525 43.7163 21.7548 43.7391C21.9146 43.7847 22.7967 43.4578 22.6945 43.397C22.6561 43.3818 22.6689 43.3741 22.72 43.3894C22.867 43.435 23.046 43.3361 23.046 43.1993C23.046 43.0928 23.0588 43.0928 23.1036 43.1765C23.1483 43.2601 23.1994 43.2601 23.404 43.1765C23.5446 43.1232 23.6916 43.07 23.7364 43.0624C24.2094 42.9636 25.7116 42.4542 25.686 42.3934C25.6669 42.3553 25.6796 42.3477 25.718 42.3782C25.7563 42.401 25.9992 42.3629 26.2549 42.2793C27.2585 41.96 28.4539 41.5722 28.537 41.5418C28.6456 41.5038 28.4539 41.2453 27.0476 39.5346C26.4403 38.8047 25.3984 37.497 24.7272 36.6379C23.2953 34.8055 20.8854 32.0837 20.6937 32.0837C20.617 32.0837 20.5914 32.0609 20.1439 31.5514C19.8946 31.2625 19.8371 31.2245 19.7796 31.3234C19.722 31.4222 19.7157 31.4222 19.7412 31.3082C19.7796 31.1713 19.3193 30.6239 18.7824 30.1829C18.6034 30.0384 18.4692 29.894 18.482 29.8712C18.4947 29.8408 17.7916 29.1413 16.9222 28.3126C13.6494 25.1877 12.8568 23.9104 13.1252 22.1617L13.1764 21.8576L13.2914 22.3898C13.5791 23.7507 14.1736 24.6707 16.0018 26.5943C17.0884 27.7423 17.3889 28.0465 20.0417 30.6771C22.0936 32.7223 22.2853 32.9352 25.3472 36.539C28.4155 40.1505 29.3104 41.1161 30.6272 42.2413C31.4135 42.9104 31.5989 43.0244 31.6756 42.8876C31.7139 42.8039 31.5989 42.6747 31.2089 42.3629C29.7579 41.1997 28.5945 39.968 25.1555 35.9232C23.5894 34.0833 21.921 32.1901 21.448 31.7111C20.9749 31.2397 20.5147 30.7759 20.4252 30.6847C20.3357 30.5935 19.7604 30.0232 19.1467 29.4074C17.2546 27.5294 17.0309 27.3014 16.2191 26.4346C15.0941 25.2485 14.2886 24.2601 14.0393 23.766C13.5983 22.884 13.3554 21.7283 13.464 21.0213C13.5152 20.6867 13.9243 19.6907 14.0138 19.6907C14.0329 19.6907 14.0329 19.8504 14.0138 20.0481ZM21.5566 20.0481C21.8123 20.1773 21.9018 20.3142 21.7804 20.4054C21.6973 20.4662 21.1283 20.1317 21.1283 20.0253C21.1283 19.8884 21.2306 19.8884 21.5566 20.0481ZM29.3935 20.2305C29.5853 20.5651 29.6109 20.6791 29.4766 20.6791C29.368 20.6791 28.978 20.0785 29.0292 19.9796C29.0995 19.8504 29.2209 19.934 29.3935 20.2305ZM24.2286 20.1469C24.2286 20.2686 23.7044 20.4738 23.5702 20.413C23.4104 20.3446 23.5318 20.1925 23.8195 20.1013C24.1455 19.9949 24.2286 20.0025 24.2286 20.1469ZM28.2301 20.1697C28.3516 20.261 28.5178 20.4967 28.5945 20.6943C28.7991 21.1809 28.7479 21.5763 28.4155 21.9944C28.1982 22.2758 28.1407 22.3062 27.8019 22.3366C27.4823 22.3594 27.3928 22.3366 27.201 22.1845C26.7152 21.7968 26.5618 21.1733 26.8047 20.6031C27.054 20.0101 27.7571 19.7972 28.2301 20.1697ZM24.8998 20.3902C25.1043 20.7247 25.1427 20.9072 25.0021 20.9072C24.887 20.9072 24.561 20.3142 24.6057 20.1773C24.6569 20.0177 24.6888 20.0405 24.8998 20.3902ZM23.046 20.4054C23.046 20.5803 22.5346 20.6715 22.3493 20.5347C22.1831 20.413 22.3493 20.299 22.7008 20.299C22.9501 20.299 23.046 20.3294 23.046 20.4054ZM26.0056 21.371C26.1974 21.6903 26.2038 22.002 26.0184 21.8196C25.865 21.6675 25.6541 21.2189 25.6988 21.1353C25.7627 21.0061 25.8203 21.0517 26.0056 21.371ZM30.0775 21.3786C30.2821 21.7131 30.3204 21.8956 30.1798 21.8956C30.0647 21.8956 29.7387 21.3026 29.7835 21.1657C29.8346 21.0061 29.8666 21.0289 30.0775 21.3786ZM25.6029 21.6295C25.7819 21.9412 25.8075 22.1237 25.6732 22.1237C25.5901 22.1237 25.2833 21.5611 25.2833 21.4166C25.2833 21.1961 25.3984 21.2722 25.6029 21.6295ZM26.696 22.5799C26.8494 22.8308 26.875 23.0361 26.7535 23.0361C26.7216 23.0361 26.6065 22.8764 26.4915 22.6863C26.3316 22.405 26.3061 22.3214 26.3764 22.2682C26.4275 22.2377 26.4787 22.2301 26.4978 22.2606C26.5234 22.291 26.6129 22.4354 26.696 22.5799ZM19.0189 22.5799C19.0189 22.6255 18.9933 22.7167 18.9614 22.7928C18.923 22.8612 18.8847 23.0209 18.8591 23.1349C18.8399 23.2565 18.7888 23.3402 18.744 23.3174C18.6226 23.2718 18.6162 22.8916 18.7312 22.6863C18.8271 22.5039 19.0189 22.4354 19.0189 22.5799ZM26.2805 22.7852C26.3764 22.9448 26.4851 23.0817 26.5106 23.0969C26.6257 23.1577 26.549 23.3326 26.37 23.401C26.1718 23.4846 26.0887 23.4314 26.1527 23.2413C26.1718 23.1805 26.1271 23.0209 26.0568 22.8764C25.9353 22.6407 25.9289 22.5038 26.044 22.5038C26.076 22.5038 26.1782 22.6331 26.2805 22.7852ZM19.8755 22.6939C20.0928 22.8004 20.1951 23.0361 20.0289 23.0361C19.8627 23.0285 19.396 22.7319 19.4344 22.6559C19.4919 22.5495 19.6006 22.5571 19.8755 22.6939ZM21.122 23.4542C21.2882 23.6443 21.0452 23.6747 20.7512 23.4922C20.4955 23.3402 20.4444 23.2642 20.5275 23.1653C20.5786 23.1045 21.0005 23.3098 21.122 23.4542ZM25.6669 23.5303C25.6669 23.6595 25.4623 23.7736 25.1746 23.8116C24.8934 23.8496 24.9509 23.6291 25.2514 23.5227C25.5965 23.3934 25.6669 23.3934 25.6669 23.5303ZM27.3608 23.6975C27.5398 24.0169 27.5654 24.1765 27.4311 24.1765C27.3416 24.1765 27.0092 23.6367 27.0092 23.4922C27.0092 23.3174 27.2074 23.4314 27.3608 23.6975ZM22.0233 23.8268C22.2726 23.9332 22.3301 24.1461 22.1 24.1233C21.8635 24.0929 21.4991 23.88 21.5438 23.7964C21.595 23.6975 21.742 23.7051 22.0233 23.8268ZM27.0028 24.0397C27.1946 24.3438 27.2074 24.4806 27.054 24.4806C26.9645 24.4806 26.6193 23.8648 26.664 23.7812C26.728 23.6595 26.8111 23.7279 27.0028 24.0397ZM19.0381 24.1537C19.134 24.5415 19.1276 24.6327 18.9933 24.6327C18.9422 24.6327 18.8719 24.4806 18.8335 24.2982C18.744 23.8572 18.744 23.7964 18.8591 23.7964C18.9166 23.7964 18.9869 23.9408 19.0381 24.1537ZM24.5674 23.8876C24.5354 24.0016 24.3117 24.0853 24.024 24.0929C23.7811 24.1005 23.7428 23.9788 23.9601 23.8724C24.1775 23.766 24.593 23.7812 24.5674 23.8876ZM23.3976 24.1005C23.3976 24.1841 23.3145 24.2221 23.0844 24.2373C22.7648 24.2601 22.6114 24.1841 22.6945 24.0245C22.7648 23.8952 23.3976 23.956 23.3976 24.1005ZM28.0576 24.8608C28.2493 25.2029 28.2621 25.317 28.1279 25.317C28.032 25.317 27.7124 24.8152 27.7124 24.6555C27.7124 24.4578 27.8914 24.5643 28.0576 24.8608ZM27.7124 25.2029C27.8978 25.5222 27.9169 25.6971 27.7763 25.6971C27.6868 25.6971 27.3161 25.0204 27.3608 24.9368C27.4311 24.8 27.5142 24.8608 27.7124 25.2029ZM19.4024 25.4082C19.5559 25.8036 19.5622 25.9252 19.4344 25.9252C19.3833 25.9252 19.2938 25.8036 19.2426 25.6515C19.0445 25.0813 19.1915 24.8532 19.4024 25.4082ZM28.7543 25.9936C28.9461 26.3282 28.9717 26.4574 28.8374 26.4574C28.7287 26.4574 28.3388 25.8568 28.39 25.7579C28.4603 25.6287 28.5817 25.7123 28.7543 25.9936ZM28.4347 26.3738C28.6265 26.7007 28.652 26.8376 28.5178 26.8376C28.4283 26.8376 28.0959 26.3206 28.0959 26.1685C28.0959 25.986 28.2621 26.0849 28.4347 26.3738ZM19.8499 26.7007C20.0033 27.0961 20.0097 27.2177 19.8819 27.2177C19.786 27.2177 19.5111 26.5563 19.5686 26.4498C19.6389 26.3054 19.7348 26.389 19.8499 26.7007ZM29.4702 27.1341C29.6237 27.4078 29.6428 27.5979 29.5086 27.5979C29.4383 27.5979 29.1187 27.0429 29.1187 26.9288C29.1187 26.7387 29.2977 26.8452 29.4702 27.1341ZM33.7083 27.309C33.8553 27.5371 33.8937 27.6511 33.8426 27.7043C33.7914 27.7651 33.7083 27.7043 33.5549 27.4914C33.4334 27.3242 33.3376 27.1493 33.3376 27.0885C33.3376 26.8984 33.5038 26.9896 33.7083 27.309ZM29.1762 27.5599C29.3744 27.8944 29.3935 28.0845 29.2209 28.0084C29.0931 27.9476 28.7863 27.3774 28.831 27.2938C28.9013 27.1569 28.9653 27.2101 29.1762 27.5599ZM20.2846 27.864C20.3293 27.9704 20.3613 28.0769 20.3613 28.0997C20.3613 28.1833 20.0481 27.8564 20.0417 27.7651C20.0417 27.5979 20.2079 27.6663 20.2846 27.864ZM30.1734 28.2441C30.2821 28.419 30.3268 28.5635 30.3012 28.6471C30.2629 28.7535 30.2245 28.7307 30.0392 28.4798C29.9177 28.3126 29.8218 28.1377 29.8218 28.0769C29.8218 27.8944 29.9944 27.978 30.1734 28.2441ZM29.9177 28.7003C30.0264 28.8752 30.0711 29.0196 30.0456 29.1033C30.0136 29.2097 29.9688 29.1793 29.7835 28.9284C29.6684 28.7611 29.5661 28.5787 29.5661 28.5254C29.5661 28.343 29.7451 28.4342 29.9177 28.7003ZM30.8957 29.3618C31.03 29.5671 31.0811 29.7039 31.0427 29.7495C30.9341 29.8788 30.4738 29.2781 30.5569 29.1185C30.6209 28.9892 30.6848 29.0272 30.8957 29.3618ZM30.6848 29.8788C30.819 30.1145 30.8446 30.2133 30.7934 30.2741C30.7167 30.3654 30.704 30.3578 30.3971 29.8712C30.3268 29.7647 30.2885 29.6507 30.314 29.6203C30.4035 29.5138 30.5186 29.5899 30.6848 29.8788ZM18.3605 30.0004C18.3413 30.0232 18.2838 30.0308 18.239 30.008C18.1879 29.9852 18.2071 29.9624 18.2774 29.9624C18.3477 29.9548 18.3861 29.9776 18.3605 30.0004ZM18.0601 30.0841C18.0089 30.1069 17.913 30.1601 17.8555 30.1981C17.7852 30.2361 17.7404 30.2361 17.7404 30.1905C17.7404 30.1145 17.8875 30.0537 18.0601 30.046C18.1432 30.046 18.1432 30.046 18.0601 30.0841ZM18.6993 30.2589C18.7824 30.3426 18.8207 30.411 18.7824 30.411C18.7504 30.411 18.6673 30.3426 18.6034 30.2589C18.5395 30.1753 18.5011 30.1069 18.5203 30.1069C18.5395 30.1069 18.6162 30.1753 18.6993 30.2589ZM31.5286 30.3122C31.7715 30.6771 31.8226 30.7987 31.7587 30.8748C31.682 30.966 31.292 30.4718 31.292 30.2969C31.292 30.1449 31.4199 30.1525 31.5286 30.3122ZM17.4784 30.3654C17.4656 30.3806 17.3633 30.4186 17.261 30.449L17.0693 30.4946L17.261 30.3882C17.4336 30.2893 17.5487 30.2817 17.4784 30.3654ZM18.5651 30.3654C18.6226 30.4414 18.6162 30.4794 18.5459 30.5098C18.4883 30.5402 18.4308 30.525 18.4116 30.487C18.3861 30.4414 18.4116 30.411 18.4564 30.411C18.5139 30.411 18.5139 30.3882 18.4436 30.335C18.3925 30.2969 18.3797 30.2589 18.418 30.2589C18.4564 30.2589 18.5267 30.3046 18.5651 30.3654ZM12.6266 30.4566C12.6266 30.5402 12.4093 30.9432 12.3582 30.9432C12.2623 30.9432 12.2431 30.7987 12.3134 30.6087C12.3773 30.4414 12.6266 30.3198 12.6266 30.4566ZM17.2738 30.7227C17.4656 30.852 17.5998 30.9888 17.5679 31.0192C17.5423 31.0496 17.3186 31.1637 17.0693 31.2777C15.989 31.7795 14.8767 32.6387 14.327 33.4066C13.6558 34.3418 13.0997 35.9764 12.7801 37.9304C12.7481 38.0977 12.7289 38.1053 12.3709 38.0596C12.0258 38.014 11.9874 38.0216 11.9171 38.1737C11.7062 38.6527 11.802 39.8692 12.1728 41.2833C12.2815 41.6787 12.3326 41.9524 12.2878 41.884C12.2431 41.8155 12.0577 41.7167 11.8787 41.6711C11.655 41.6026 11.54 41.5342 11.54 41.4582C11.54 41.3593 11.5911 41.3517 11.802 41.3898C12.0577 41.4354 12.0641 41.4354 12.0194 41.2681C11.8212 40.5382 11.7189 39.93 11.687 39.3293L11.6486 38.6299L11.3418 38.5462C11.1372 38.4854 11.0286 38.417 11.0286 38.3409C11.0286 38.2421 11.0861 38.2345 11.3418 38.2725L11.655 38.3181L11.7253 37.6947C11.9299 36.0296 12.518 34.0604 13.0613 33.2545C13.3809 32.7755 14.1672 32.0608 14.9087 31.5743C15.4712 31.2093 16.7624 30.4946 16.8711 30.487C16.9031 30.487 17.082 30.5935 17.2738 30.7227ZM18.7312 30.6011C18.3349 30.7303 18.2902 30.7303 18.5395 30.6011C18.6481 30.5402 18.8016 30.4946 18.8911 30.4946C18.9869 30.4946 18.923 30.5402 18.7312 30.6011ZM18.2966 30.6087C18.2774 30.6315 18.2199 30.6391 18.1751 30.6163C18.124 30.5935 18.1432 30.5707 18.2135 30.5707C18.2838 30.5631 18.3221 30.5859 18.2966 30.6087ZM18.2518 30.7683C18.2518 30.7835 18.2007 30.7911 18.1432 30.7835C18.0792 30.7759 17.977 30.7911 17.9194 30.8216C17.8555 30.8596 17.7724 30.8672 17.7277 30.8444C17.6829 30.8216 17.7085 30.7987 17.7852 30.7987C17.8619 30.7911 17.9386 30.7607 17.9578 30.7227C17.9961 30.6543 18.2518 30.6923 18.2518 30.7683ZM31.4455 30.9888C31.5605 31.1561 31.6117 31.2929 31.5797 31.3842C31.5477 31.4906 31.503 31.4602 31.2857 31.1865C31.0491 30.8824 31.0108 30.7075 31.1834 30.7227C31.2281 30.7227 31.3432 30.8444 31.4455 30.9888ZM19.2938 30.8748C19.2554 30.9204 19.102 30.9736 18.9486 30.9888C18.7952 31.0116 18.6865 31.0116 18.7057 30.9888C18.7249 30.966 18.8463 30.9356 18.9805 30.9128C19.1148 30.89 19.2426 30.8596 19.2618 30.8368C19.281 30.814 19.3129 30.7911 19.3321 30.7911C19.3513 30.7911 19.3321 30.8292 19.2938 30.8748ZM19.4919 30.928C19.5111 30.966 19.4855 30.9964 19.4344 30.9964C19.3833 30.9964 19.3577 30.966 19.3769 30.928C19.396 30.8976 19.4216 30.8672 19.4344 30.8672C19.4472 30.8672 19.4728 30.8976 19.4919 30.928ZM11.981 31.3766C11.981 31.4526 11.8596 31.6275 11.7253 31.7719C11.5272 31.9772 11.4569 32.0076 11.3929 31.9392C11.3354 31.8632 11.3738 31.7795 11.5847 31.5438C11.8787 31.2245 11.9874 31.1713 11.981 31.3766ZM32.3659 31.5438C32.5897 31.8708 32.6216 32.0076 32.481 32.0076C32.3595 32.0076 31.976 31.4222 32.0272 31.3234C32.0911 31.1941 32.155 31.2321 32.3659 31.5438ZM19.6581 31.4754C19.6581 31.5134 19.6326 31.5514 19.5942 31.5514C19.5622 31.5514 19.5303 31.5134 19.5303 31.4754C19.5303 31.4298 19.5622 31.3994 19.5942 31.3994C19.6326 31.3994 19.6581 31.4298 19.6581 31.4754ZM20.0928 31.5971C20.0992 31.5971 20.0225 31.6047 19.9202 31.6047C19.7796 31.6047 19.754 31.5819 19.8115 31.5058C19.8627 31.4374 19.9074 31.4374 19.9777 31.4982C20.0289 31.5438 20.08 31.5895 20.0928 31.5971ZM32.1806 32.0761C32.3979 32.3954 32.4299 32.5398 32.2892 32.5398C32.1678 32.5398 31.7842 31.9544 31.8354 31.8556C31.9057 31.7263 31.976 31.7719 32.1806 32.0761ZM19.1276 31.9012C19.1084 31.924 19.0509 31.9316 19.0061 31.9088C18.955 31.886 18.9742 31.8632 19.0445 31.8632C19.1148 31.8556 19.1531 31.8784 19.1276 31.9012ZM20.3805 32.0608C20.3357 32.0761 20.259 32.0761 20.2206 32.0608C20.1759 32.038 20.2079 32.0228 20.2974 32.0228C20.3868 32.0228 20.4188 32.038 20.3805 32.0608ZM11.0925 32.365C11.0925 32.4638 10.6195 32.996 10.5364 32.996C10.3957 32.996 10.4405 32.8288 10.6578 32.5626C10.8432 32.3346 11.0925 32.2205 11.0925 32.365ZM33.1074 32.5931C33.3503 32.8972 33.4015 33.0721 33.2481 33.0721C33.1586 33.0721 32.7623 32.5855 32.7623 32.4714C32.7623 32.4182 32.8262 32.3117 32.8645 32.3117C32.8773 32.3117 32.986 32.441 33.1074 32.5931ZM37.7163 32.7679C37.9144 33.0112 37.9528 33.0873 37.8825 33.1633C37.8185 33.2469 37.7546 33.2013 37.5501 32.9352C37.3263 32.6539 37.2752 32.4638 37.4222 32.4638C37.4478 32.4638 37.582 32.6007 37.7163 32.7679ZM33.0116 33.2317C33.1778 33.4674 33.2097 33.5586 33.1522 33.6271C33.0883 33.6955 33.0243 33.6499 32.8518 33.437C32.628 33.1481 32.5705 32.92 32.7175 32.92C32.7559 32.92 32.8901 33.0644 33.0116 33.2317ZM10.1976 33.4522C10.1976 33.5815 9.8524 34.1289 9.7693 34.1365C9.63506 34.1365 9.67341 33.9008 9.8524 33.6271C10.0058 33.3914 10.1976 33.2925 10.1976 33.4522ZM33.9065 33.6575C34.1174 33.9616 34.1558 34.1365 34.0215 34.1365C33.9065 34.1365 33.5102 33.551 33.5613 33.4522C33.6316 33.323 33.7083 33.3686 33.9065 33.6575ZM33.817 34.2885C34.0151 34.5242 34.0471 34.6155 33.9896 34.6839C33.9257 34.7599 33.8553 34.7143 33.6508 34.4634C33.5038 34.2961 33.4079 34.1137 33.4271 34.068C33.4974 33.9388 33.5485 33.9616 33.817 34.2885ZM34.7375 34.7067C34.8845 34.8816 34.942 35.0032 34.9101 35.0945C34.8717 35.2085 34.8334 35.1857 34.616 34.9348C34.3603 34.6383 34.29 34.4406 34.4434 34.4406C34.4818 34.4406 34.616 34.5622 34.7375 34.7067ZM9.62228 34.7143C9.62228 34.9196 9.40494 35.5811 9.34741 35.5582C9.18121 35.4898 9.34741 34.6687 9.52639 34.6687C9.57753 34.6687 9.62228 34.6915 9.62228 34.7143ZM34.827 35.7407C34.7375 35.8472 34.6224 35.7559 34.4179 35.4138C34.2005 35.0488 34.3475 35.0032 34.6352 35.3454C34.8397 35.581 34.8845 35.6723 34.827 35.7407ZM35.7155 36.1285C35.5876 36.2805 35.1274 35.6875 35.2297 35.4974C35.2552 35.4442 35.3703 35.5354 35.5301 35.7255C35.7347 35.9688 35.7794 36.0524 35.7155 36.1285ZM9.32823 36.1817C9.39855 36.3109 9.28988 37.0256 9.20039 37.0256C9.13646 37.0256 9.11089 36.9116 9.11089 36.6227C9.11089 36.3946 9.13007 36.1893 9.15564 36.1665C9.21317 36.0905 9.28988 36.0981 9.32823 36.1817ZM35.5301 36.4402C35.6835 36.6607 35.7091 36.7443 35.6452 36.8203C35.5876 36.8888 35.5237 36.8508 35.3511 36.6075C35.2297 36.4402 35.1338 36.2577 35.1274 36.2045C35.1274 36.022 35.332 36.1437 35.5301 36.4402ZM36.3355 36.7519C36.489 36.942 36.5401 37.056 36.5081 37.1549C36.4698 37.2765 36.425 37.2461 36.2077 36.9648C36.0671 36.7899 35.9712 36.6075 35.9904 36.5694C36.0543 36.4478 36.1118 36.4782 36.3355 36.7519ZM47.8288 36.8127C48.9666 38.052 50.5775 40.2569 50.9163 41.0552C51.3062 41.96 51.4213 43.032 51.1912 43.6479C50.6734 45.0392 48.3082 45.6398 44.8181 45.2749C43.1561 45.1 40.8165 44.583 40.8165 44.3854C40.8165 44.2181 41.4174 42.9636 41.8073 42.3097C43.0794 40.1961 45.3167 37.5882 46.4737 36.8888C46.8188 36.6835 47.2407 36.5086 47.4197 36.501C47.4772 36.4934 47.6626 36.6379 47.8288 36.8127ZM36.2716 37.459C36.4762 37.7555 36.5145 37.9 36.4122 37.976C36.3355 38.0292 35.8817 37.3373 35.9328 37.2461C35.9967 37.1245 36.0735 37.1777 36.2716 37.459ZM9.44968 37.5959C9.47525 37.6567 9.46247 37.7251 9.43051 37.7479C9.39215 37.7783 9.36659 37.9684 9.36659 38.1737C9.36659 38.4474 9.34102 38.5462 9.28988 38.531C9.19399 38.493 9.07254 37.7783 9.13007 37.6035C9.18121 37.4514 9.40494 37.4438 9.44968 37.5959ZM37.1026 37.8772C37.2944 38.1813 37.3072 38.3181 37.1537 38.3181C37.0451 38.3105 36.7063 37.7251 36.7574 37.6339C36.8277 37.497 36.9044 37.5502 37.1026 37.8772ZM10.3126 37.9304C10.5747 38.0216 10.6962 38.2421 10.4788 38.2421C10.2743 38.2421 9.87797 38.0672 9.87797 37.976C9.87797 37.8696 9.94828 37.7783 9.99942 37.8163C10.0186 37.8315 10.1592 37.8848 10.3126 37.9304ZM41.2512 38.569C41.264 38.9036 41.2512 39.0024 41.1809 39.0024C41.1169 39.0024 41.0786 38.8808 41.053 38.5995C41.0211 38.1737 41.0402 38.0672 41.1553 38.1129C41.2 38.1281 41.2384 38.3333 41.2512 38.569ZM12.9015 38.4398L13.2019 38.4854V39.2837C13.2019 40.1885 13.3745 41.3517 13.6174 42.0512C13.7005 42.3021 13.7517 42.4998 13.7261 42.5074C13.5407 42.5302 12.9015 42.477 12.8184 42.4238C12.7097 42.3553 12.3837 41.2149 12.1792 40.2189C12.0577 39.5878 12.0066 38.4778 12.0961 38.3638C12.1216 38.3333 12.2431 38.3257 12.3709 38.3486C12.4924 38.3714 12.7289 38.4094 12.9015 38.4398ZM37.0323 38.6603C37.1857 38.9568 37.2177 39.1545 37.0962 39.1545C36.9875 39.1545 36.6424 38.5006 36.6935 38.4018C36.751 38.2801 36.8725 38.379 37.0323 38.6603ZM37.7866 39.086C37.8889 39.3293 37.9016 39.5346 37.8121 39.5346C37.7099 39.5346 37.4158 38.9264 37.4542 38.7971C37.5053 38.6527 37.6523 38.7819 37.7866 39.086ZM9.55835 39.2609C9.59031 39.3598 9.63506 39.565 9.65424 39.7171C9.69259 39.9376 9.67981 39.9908 9.6031 39.9908C9.49443 39.9908 9.2707 39.2761 9.34102 39.1469C9.40494 39.0252 9.49443 39.0784 9.55835 39.2609ZM41.232 39.6259C41.2512 39.6791 41.2448 39.8768 41.2128 40.0668C41.1809 40.3025 41.1297 40.4166 41.0466 40.4318C40.9444 40.4546 40.938 40.4166 40.9763 40.0896C41.0275 39.6183 41.053 39.5346 41.1361 39.5346C41.1745 39.5346 41.2192 39.5802 41.232 39.6259ZM37.5884 39.8539C37.7099 40.2113 37.729 40.3862 37.6396 40.4242C37.5756 40.4546 37.3008 39.8539 37.3008 39.6791C37.3008 39.5042 37.5117 39.6411 37.5884 39.8539ZM38.1509 40.0972C38.1701 40.1581 38.2532 40.2189 38.3299 40.2341C38.5345 40.2645 38.5664 40.447 38.3683 40.447C38.2468 40.447 38.2021 40.4926 38.1829 40.6143C38.1701 40.7131 38.119 40.7967 38.0614 40.8119C37.9783 40.8271 37.9592 40.7587 37.9528 40.409C37.9528 40.1125 37.972 39.9908 38.0359 39.9908C38.0806 39.9908 38.1318 40.0364 38.1509 40.0972ZM39.6915 40.4166C39.9216 40.4546 39.9855 40.5002 39.9855 40.6143C39.9855 40.7435 39.9536 40.7511 39.6531 40.7055C39.2824 40.6523 39.0906 40.561 39.0906 40.447C39.0906 40.3557 39.2696 40.3481 39.6915 40.4166ZM9.90993 40.523C9.9291 40.561 9.91632 40.599 9.88436 40.599C9.846 40.599 9.81404 40.561 9.81404 40.523C9.81404 40.4774 9.82683 40.447 9.83961 40.447C9.85879 40.447 9.89075 40.4774 9.90993 40.523ZM40.9316 40.6447C41.0083 40.6751 41.0722 40.7435 41.0722 40.8043C41.0722 40.9716 40.6631 40.9032 40.6375 40.7283C40.612 40.5914 40.6887 40.5686 40.9316 40.6447ZM10.8432 41.0704C11.0669 41.1465 11.1948 41.3593 11.0222 41.3593C10.8176 41.3593 10.3893 41.1769 10.3893 41.0856C10.3893 40.9564 10.5172 40.9488 10.8432 41.0704ZM37.6843 41.1465C37.6843 41.481 37.5501 41.8916 37.4478 41.8916C37.3711 41.8916 37.3583 41.8383 37.3839 41.6407C37.4606 41.0932 37.6843 40.7283 37.6843 41.1465ZM38.4322 41.0932C38.4514 41.1617 38.4514 41.2301 38.4322 41.2529C38.3619 41.3365 38.0039 41.1921 38.0039 41.0856C38.0039 40.9336 38.3811 40.9412 38.4322 41.0932ZM41.0275 41.04C41.0466 41.0704 41.0275 41.2757 40.9955 41.4962C40.9316 41.8459 40.8421 41.9752 40.7398 41.8535C40.7078 41.8155 40.7782 41.3137 40.8485 41.0704C40.8804 40.9716 40.9827 40.9488 41.0275 41.04ZM28.2238 41.1845C28.2238 41.2225 28.1023 41.2529 27.9489 41.2605C27.7507 41.2681 27.7124 41.2529 27.8083 41.2073C27.9681 41.1237 28.2238 41.1161 28.2238 41.1845ZM39.6595 41.2529C39.7234 41.3213 39.5892 41.519 39.4997 41.481C39.4422 41.4582 39.3207 41.4354 39.2312 41.4354C39.0139 41.4354 38.8669 41.3289 38.9308 41.2073C38.9628 41.1465 39.0778 41.1389 39.3079 41.1693C39.4869 41.1997 39.6467 41.2377 39.6595 41.2529ZM28.5434 41.4962C28.5625 41.5114 28.5178 41.519 28.4475 41.5038C28.3772 41.4886 28.2877 41.5038 28.2493 41.5266C28.211 41.557 28.179 41.5342 28.179 41.4734C28.179 41.4126 28.2046 41.3822 28.2365 41.405C28.2621 41.4278 28.2877 41.405 28.2877 41.3517C28.2877 41.2909 28.3196 41.2909 28.4027 41.367C28.4603 41.4202 28.5242 41.481 28.5434 41.4962ZM28 41.4278C27.9105 41.519 27.5334 41.6179 27.6165 41.5266C27.6548 41.481 27.7379 41.4354 27.8083 41.4126C28.0256 41.3517 28.064 41.3517 28 41.4278ZM38.0359 41.7091C37.9783 42.1653 37.94 42.2869 37.8505 42.2489C37.7035 42.1881 37.8185 41.3593 37.9783 41.3593C38.0678 41.3593 38.0742 41.4202 38.0359 41.7091ZM40.5544 41.4278C40.612 41.4734 40.6247 41.5646 40.5928 41.7319C40.548 41.9904 40.3691 42.0588 40.3691 41.8155C40.3691 41.7395 40.3115 41.6331 40.2412 41.5874C40.1709 41.5418 40.1134 41.4734 40.1134 41.4354C40.1134 41.3441 40.433 41.3365 40.5544 41.4278ZM27.3161 41.5722C27.1882 41.6026 27.1626 41.7395 27.2841 41.7395C27.3224 41.7471 27.2905 41.7927 27.201 41.8535C27.0156 41.9828 26.9197 41.998 26.9773 41.8992C26.9964 41.8611 26.9773 41.8155 26.9325 41.7927C26.8878 41.7775 26.9389 41.7775 27.0412 41.7927C27.1754 41.8155 27.2074 41.8003 27.1435 41.7547C27.0859 41.7015 27.0795 41.6635 27.1307 41.6331C27.169 41.6026 27.1882 41.5494 27.169 41.5114C27.1499 41.481 27.201 41.4734 27.2777 41.4962C27.3992 41.5342 27.4055 41.5494 27.3161 41.5722ZM26.9773 41.5874C26.8047 41.6787 26.7024 41.6787 26.8175 41.5874C26.8686 41.5494 26.9581 41.519 27.0092 41.519C27.0731 41.519 27.0604 41.5418 26.9773 41.5874ZM27.9872 41.6407C27.9425 41.6559 27.8658 41.6559 27.8274 41.6407C27.7827 41.6179 27.8147 41.6026 27.9041 41.6026C27.9936 41.6026 28.0256 41.6179 27.9872 41.6407ZM27.5654 41.7091C27.5462 41.7319 27.4886 41.7395 27.4439 41.7167C27.3928 41.6939 27.4119 41.6711 27.4823 41.6711C27.5526 41.6635 27.5909 41.6863 27.5654 41.7091ZM26.5426 41.8611C26.5234 41.884 26.4659 41.8916 26.4211 41.8687C26.37 41.8459 26.3892 41.8231 26.4595 41.8231C26.5298 41.8155 26.5682 41.8383 26.5426 41.8611ZM26.7471 42.0056C26.7344 42.0208 26.6321 42.0512 26.5298 42.074L26.338 42.1196L26.517 42.0284C26.6129 41.9752 26.6896 41.8992 26.696 41.8611C26.696 41.8155 26.7152 41.8231 26.7344 41.8764C26.7535 41.9296 26.7535 41.9904 26.7471 42.0056ZM25.8906 42.1044C25.8714 42.1273 25.8203 42.1044 25.7755 42.0512C25.718 41.9752 25.7244 41.9676 25.8139 42.0132C25.8778 42.036 25.9098 42.0816 25.8906 42.1044ZM25.3856 42.2337C25.3153 42.2945 25.2322 42.3477 25.1938 42.3477C25.1619 42.3477 25.1874 42.2945 25.2577 42.2337C25.3217 42.1729 25.4112 42.1273 25.4431 42.1273C25.4815 42.1273 25.4495 42.1729 25.3856 42.2337ZM26.2613 42.1729C26.2166 42.1881 26.1399 42.1881 26.1015 42.1729C26.0568 42.1501 26.0887 42.1349 26.1782 42.1349C26.2677 42.1349 26.2997 42.1501 26.2613 42.1729ZM25.7755 42.2413C25.7563 42.2641 25.6988 42.2717 25.6541 42.2489C25.6029 42.2261 25.6221 42.2033 25.6924 42.2033C25.7627 42.1957 25.8011 42.2185 25.7755 42.2413ZM37.3903 42.6823C37.3711 42.7887 37.3136 42.88 37.2624 42.88C37.1537 42.88 37.141 42.5682 37.2496 42.439C37.3583 42.3097 37.4414 42.4466 37.3903 42.6823ZM40.433 42.5226C40.433 42.7659 40.2923 43.1841 40.2092 43.1841C40.0878 43.1841 40.0878 42.9484 40.2092 42.6062C40.2923 42.3553 40.433 42.3097 40.433 42.5226ZM25.3025 42.477C25.2577 42.4922 25.1683 42.4922 25.1107 42.477C25.0468 42.4542 25.0852 42.439 25.1874 42.439C25.2961 42.439 25.3408 42.4542 25.3025 42.477ZM40.7526 42.5682C40.7526 42.7355 40.6247 43.1993 40.5544 43.2905C40.4522 43.4274 40.4202 43.1004 40.4969 42.7659C40.5736 42.4238 40.7526 42.2869 40.7526 42.5682ZM24.3948 42.7051C24.4779 42.8343 24.4779 42.8343 24.3564 42.7279C24.2861 42.6671 24.2158 42.6062 24.203 42.5986C24.1902 42.5834 24.203 42.5758 24.2414 42.5758C24.2797 42.5758 24.35 42.6367 24.3948 42.7051ZM24.1391 42.7659C24.1391 42.8647 23.877 42.9104 23.877 42.8191C23.877 42.7355 24.0049 42.6519 24.088 42.6823C24.1199 42.6899 24.1391 42.7279 24.1391 42.7659ZM13.643 42.8952C13.6558 42.9332 13.822 43.1917 14.0202 43.4654C14.442 44.0584 15.0557 44.6743 15.5543 45.0012C16.0785 45.3509 15.7141 45.2141 14.9598 44.7807C14.2439 44.3701 13.6686 43.8759 13.1061 43.1841L12.7225 42.7127L13.17 42.7659C13.4193 42.7963 13.6302 42.8571 13.643 42.8952ZM37.8185 42.8267C37.8121 42.8571 37.8121 42.9332 37.8121 42.994C37.8121 43.0548 37.7674 43.108 37.7163 43.108C37.6204 43.108 37.582 42.8723 37.6651 42.7735C37.7163 42.7127 37.8249 42.7507 37.8185 42.8267ZM23.7684 42.9332C23.7236 42.9484 23.6469 42.9484 23.6085 42.9332C23.5638 42.9104 23.5958 42.8952 23.6853 42.8952C23.7747 42.8952 23.8067 42.9104 23.7684 42.9332ZM40.0622 43.9064C39.9855 44.104 39.7937 44.1725 39.7937 43.9976C39.7937 43.9444 39.8385 43.8227 39.896 43.7239C40.0367 43.4882 40.1709 43.625 40.0622 43.9064ZM40.3946 43.8531C40.4522 43.9596 40.3563 44.2485 40.2668 44.2485C40.1389 44.2485 40.1006 44.1192 40.1773 43.9444C40.2476 43.7847 40.3371 43.7467 40.3946 43.8531Z" fill="#F7FBFE"/>
<path d="M20.4252 17.6683C20.4252 17.6836 20.4763 17.7444 20.5403 17.7976C20.6361 17.8964 20.6425 17.8888 20.5594 17.7672C20.4763 17.6455 20.4252 17.6075 20.4252 17.6683Z" fill="#F7FBFE"/>
<path d="M20.6809 18.1626C20.6809 18.2006 20.726 18.2462 20.771 18.269C20.8354 18.2994 20.8547 18.2766 20.829 18.2006C20.7903 18.0865 20.6809 18.0561 20.6809 18.1626Z" fill="#F7FBFE"/>
<path d="M21.2434 18.6413C21.2754 18.6795 21.3457 18.7025 21.3904 18.6872C21.4416 18.6642 21.4096 18.6336 21.3265 18.603C21.2178 18.5724 21.1923 18.58 21.2434 18.6413Z" fill="#F7FBFE"/>
<path d="M21.8635 19.006C21.9338 19.0442 22.0488 19.0672 22.1192 19.0672C22.2214 19.0672 22.215 19.0519 22.0872 19.006C21.8699 18.9218 21.7037 18.9218 21.8635 19.006Z" fill="#F7FBFE"/>
<path d="M22.3303 18.9835C22.3754 19.0065 22.4333 18.9988 22.4526 18.9759C22.4784 18.9529 22.4398 18.93 22.3689 18.9376C22.2981 18.9376 22.2788 18.9606 22.3303 18.9835Z" fill="#F7FBFE"/>
<path d="M22.3303 19.1357C22.3754 19.1587 22.4333 19.151 22.4526 19.1281C22.4784 19.1051 22.4398 19.0822 22.3689 19.0898C22.2981 19.0898 22.2788 19.1128 22.3303 19.1357Z" fill="#F7FBFE"/>
<path d="M36.3739 23.4542C36.131 23.7203 35.9456 23.956 35.9648 23.9788C35.984 24.0016 36.2972 23.9864 36.6552 23.956L37.32 23.8875L37.6268 23.5226C37.7994 23.3173 37.94 23.112 37.94 23.0588C37.94 22.9828 37.793 22.96 37.3839 22.96L36.8214 22.9676L36.3739 23.4542Z" fill="#F7FBFE"/>
<path d="M28.8694 23.9256C28.863 24.2754 28.9972 24.5035 29.2785 24.6327C29.4383 24.7088 29.8857 24.5947 29.8857 24.4807C29.8857 24.4503 29.7835 24.4503 29.6556 24.4959C29.5278 24.5339 29.4063 24.5491 29.3871 24.5263C29.368 24.4959 29.3999 24.359 29.4575 24.2146C29.5853 23.9028 29.5917 23.7508 29.4958 23.6747C29.4063 23.6139 29.2976 23.7508 29.2082 24.0473L29.1315 24.2906L29.0036 23.9485L28.8694 23.6063V23.9256Z" fill="#F7FBFE"/>
<path d="M38.8733 25.6288C38.4386 25.6897 38.4258 25.6897 38.0103 26.1763C37.7802 26.45 37.5117 26.7541 37.4158 26.8605C37.3136 26.9594 37.2368 27.0582 37.2368 27.081C37.2368 27.0962 37.3903 27.0886 37.5756 27.0582C37.7546 27.0278 38.0423 26.9974 38.2085 26.9974C38.5025 26.9898 38.5153 26.9746 38.9883 26.3435C39.2568 25.9862 39.4741 25.6669 39.4741 25.6364C39.4741 25.5604 39.455 25.5604 38.8733 25.6288Z" fill="#F7FBFE"/>
<path d="M30.5569 26.6018C30.493 26.8451 30.5697 27.2481 30.7103 27.4001C30.8638 27.5674 31.2409 27.6358 31.3943 27.5294C31.503 27.461 31.4966 27.4534 31.3432 27.4458C31.145 27.4458 31.1322 27.3925 31.2345 27.1112C31.3432 26.8299 31.2089 26.6551 30.9277 26.7235C30.7487 26.7615 30.704 26.7463 30.6592 26.5942L30.6081 26.4194L30.5569 26.6018Z" fill="#F7FBFE"/>
<path d="M40.3115 28.5863L39.8321 28.6396L39.4997 29.0881C39.3143 29.3314 39.1737 29.5519 39.1865 29.5671C39.1993 29.5823 39.4677 29.5367 39.7746 29.4683C40.0814 29.3923 40.4074 29.3238 40.4969 29.301C40.5992 29.2782 40.7206 29.149 40.8357 28.9361C41.0402 28.5483 41.0466 28.5103 40.8996 28.5179C40.8357 28.5255 40.5736 28.5559 40.3115 28.5863Z" fill="#F7FBFE"/>
<path d="M32.5705 29.742C32.5705 30.2894 33.0435 30.6391 33.4398 30.3806L33.6252 30.2666L33.3887 30.259C33.1074 30.259 33.0371 30.1601 33.1522 29.9092C33.2545 29.6736 33.1777 29.5747 32.8326 29.5215L32.5705 29.4759V29.742Z" fill="#F7FBFE"/>
<path d="M41.59 31.4147C41.2576 31.8861 40.2987 33.3915 40.3179 33.4143C40.3435 33.4447 41.2 33.2546 41.2256 33.2166C41.2959 33.1177 42.3379 31.4223 42.3762 31.3386C42.4082 31.2702 42.3315 31.2474 42.0694 31.2474C41.7753 31.2474 41.6859 31.2778 41.59 31.4147Z" fill="#F7FBFE"/>
<path d="M34.5329 32.2739C34.469 32.464 34.5585 32.8213 34.7055 32.981C34.8653 33.1558 35.1849 33.2547 35.3128 33.1558C35.3703 33.1102 35.3447 33.0874 35.2297 33.0874C34.9995 33.0874 34.974 33.0418 35.0507 32.7681C35.1402 32.4792 35.0954 32.3347 34.9037 32.2815C34.8206 32.2587 34.7119 32.2207 34.6608 32.1903C34.6096 32.1674 34.5521 32.2055 34.5329 32.2739Z" fill="#F7FBFE"/>
<path d="M36.5145 35.1326C36.4059 35.6116 36.6935 36.045 37.1026 36.0298C37.2496 36.0222 37.2816 36.007 37.1921 35.9841C37.0323 35.9461 37.0195 35.8853 37.1026 35.5204C37.1601 35.2847 37.1601 35.2771 36.9748 35.2771C36.8597 35.2771 36.7638 35.2238 36.7127 35.125C36.6104 34.9273 36.5593 34.9349 36.5145 35.1326Z" fill="#F7FBFE"/>
<path d="M40.2156 35.7255C40.1965 35.7636 40.2156 35.832 40.2668 35.8776C40.3307 35.946 40.3882 35.9308 40.5033 35.8092L40.6567 35.6647L40.4521 35.6571C40.3435 35.6571 40.2348 35.6875 40.2156 35.7255Z" fill="#F7FBFE"/>
<path d="M38.9244 37.4059C38.4514 37.634 38.4769 38.5616 38.9564 38.7593C39.1609 38.8429 39.4422 38.7973 39.5381 38.6604C39.5892 38.592 39.5636 38.5616 39.4358 38.5616C39.1993 38.5616 38.9755 38.4019 38.9308 38.189C38.9116 38.0826 38.9436 37.8697 39.0203 37.672C39.1545 37.3147 39.1481 37.2995 38.9244 37.4059Z" fill="#F7FBFE"/>
<path d="M27.2585 20.6716C26.8558 21.1506 27.1051 21.8957 27.6676 21.8957C28.0448 21.8957 28.2877 21.6067 28.2877 21.1582C28.2877 20.5195 27.6421 20.2154 27.2585 20.6716Z" fill="#F7FBFE"/>
<path d="M26.677 47.647C26.7221 47.67 26.78 47.6623 26.7994 47.6394C26.8251 47.6164 26.7865 47.5935 26.7157 47.6011C26.6449 47.6011 26.6255 47.6241 26.677 47.647Z" fill="#F7FBFE"/>
</svg>
